<svg width="46" height="46" viewBox="0 0 46 46" fill="none" xmlns="http://www.w3.org/2000/svg">
<path d="M18.6611 19.339C16.447 18.6995 14.1606 18.9745 12.249 20.0812C10.3814 19.003 8.02975 18.7021 5.80334 19.3114C3.16858 20.0391 1.0701 22.1246 0.32862 24.7523C-0.30379 26.9866 -0.0171882 29.2828 1.13452 31.217C2.16799 32.9525 2.69259 35.1684 2.69259 37.8026V41.9938C2.69259 47.3331 10.9053 47.3374 10.9053 41.9938V39.2092C10.9053 37.428 13.598 37.428 13.598 39.2092V41.9938C13.598 47.3331 21.676 47.3374 21.676 41.9938V37.8026C21.676 35.1684 22.2006 32.9525 23.234 31.217C25.9256 26.696 23.5886 20.7589 18.6611 19.339Z" fill="#DE0D1D"/>
<path d="M45.671 24.7522C44.2309 19.6518 38.1979 17.5296 33.7904 20.0811C31.1769 18.5722 27.743 18.5419 24.9414 20.6189C27.4968 24.0557 27.8042 28.8046 25.5466 32.5972C24.7644 33.9104 24.3685 35.6617 24.3685 37.8025V41.9938C24.3685 47.3331 32.4466 47.3373 32.4466 41.9938V39.2091C32.4466 37.428 35.1393 37.428 35.1393 39.2091V41.9938C35.1393 47.3331 43.3071 47.3373 43.3071 41.9938V37.8025C43.3071 35.1683 43.8317 32.9524 44.865 31.2169C46.0168 29.2826 46.3034 26.9864 45.671 24.7522Z" fill="#DE0D1D"/>
<path d="M44.6537 5.52435H36.3359C34.8792 5.52435 33.4224 5.0898 32.1234 4.43845L25.8992 1.28029C24.2268 0.44211 22.3546 0 20.4797 0H4.03901C1.81179 0 0 1.85818 0 4.08716V6.87181C0 7.61658 0.602133 8.21918 1.34631 8.21918H2.69262V12.2614C2.69262 14.4904 4.63908 16.3036 6.86631 16.3036H17.637C19.8643 16.3036 21.6761 14.4904 21.6761 12.2614V8.35936C22.7226 8.49513 23.7544 8.74375 24.6948 9.21535L30.919 12.3285C32.5888 13.1654 34.4636 13.6088 36.3359 13.6088H44.6537C45.3979 13.6088 46 13.0062 46 12.2615V6.87181C46 6.12705 45.3979 5.52435 44.6537 5.52435ZM8.2127 13.6088H6.86631C6.12474 13.6088 5.38532 13.0049 5.38532 12.2615V8.21918H8.21261V13.6088H8.2127ZM13.598 13.6088H10.9053V8.21918H13.598V13.6088ZM18.9834 12.2614C18.9834 13.0048 18.3787 13.6088 17.6371 13.6088H16.2908V8.21918H18.9835V12.2614H18.9834ZM43.3073 10.914H40.6146V8.21918H43.3073V10.914Z" fill="#DE0D1D"/>
</svg>
