<svg width="28" height="27" viewBox="0 0 28 27" fill="none" xmlns="http://www.w3.org/2000/svg">
<path d="M3.73336 0L0 7.49897H16.8649L21.5444 0H3.73336Z" fill="#DE0D1D"/>
<path d="M28 6.5616L23.8 0L16.45 11.6632C14.8631 11.1097 13.1368 11.1097 11.5499 11.6632L10.1225 9.37372H1.62268L6.67788 17.2763C6.46054 18.3645 6.48641 19.4876 6.75362 20.5645C7.02084 21.6414 7.52273 22.6453 8.22309 23.5038C8.92345 24.3623 9.80482 25.054 10.8036 25.5289C11.8024 26.0038 12.8937 26.2502 13.9988 26.2502C15.1038 26.2502 16.1951 26.0038 17.1939 25.5289C18.1927 25.054 19.0741 24.3623 19.7744 23.5038C20.4748 22.6453 20.9767 21.6414 21.2439 20.5645C21.5111 19.4876 21.537 18.3645 21.3197 17.2763L28 6.5616ZM13.9999 22.8484C13.1923 22.8484 12.4028 22.6079 11.7313 22.1573C11.0598 21.7067 10.5365 21.0662 10.2274 20.3168C9.91834 19.5675 9.83748 18.7429 9.99503 17.9474C10.1526 17.1519 10.5415 16.4211 11.1126 15.8476C11.6836 15.2741 12.4112 14.8835 13.2033 14.7252C13.9954 14.567 14.8164 14.6482 15.5626 14.9586C16.3087 15.269 16.9464 15.7946 17.3951 16.469C17.8438 17.1434 18.0833 17.9363 18.0833 18.7474C18.0821 19.8347 17.6515 20.8771 16.8859 21.6459C16.1204 22.4147 15.0825 22.8472 13.9999 22.8484V22.8484Z" fill="#DE0D1D"/>
<path d="M14.0001 20.622C15.031 20.622 15.8668 19.7827 15.8668 18.7473C15.8668 17.7119 15.031 16.8726 14.0001 16.8726C12.9692 16.8726 12.1334 17.7119 12.1334 18.7473C12.1334 19.7827 12.9692 20.622 14.0001 20.622Z" fill="#DE0D1D"/>
</svg>
