<svg width="42" height="43" viewBox="0 0 42 43" fill="none" xmlns="http://www.w3.org/2000/svg">
<path d="M38.1812 34.5535V35.3214H41.2357V34.5535C41.2354 34.3499 41.1549 34.1547 41.0118 34.0108C40.8686 33.8668 40.6745 33.7859 40.472 33.7856H38.9448C38.7423 33.7859 38.5482 33.8668 38.4051 34.0108C38.2619 34.1547 38.1814 34.3499 38.1812 34.5535V34.5535Z" fill="#DE0D1D"/>
<path d="M38.1812 36.8569H41.2357V42.9998H38.1812V36.8569Z" fill="#DE0D1D"/>
<path d="M2.28372 20.1258C2.52398 22.7918 2.79621 25.8135 4.5601 30.4356C5.92766 34.0185 8.50968 34.5535 9.92716 34.5535C10.623 34.5535 11.3642 34.1341 11.9603 33.4028C12.969 32.1662 13.3581 30.3549 13.0015 28.5575C12.152 24.278 12.3944 21.1687 13.7018 19.5659C14.309 18.8221 15.1161 18.4286 16.0362 18.4286C16.9563 18.4286 17.7633 18.8221 18.3702 19.5659C19.6779 21.1688 19.9198 24.278 19.0705 28.5575C18.7138 30.3549 19.103 32.1665 20.1117 33.4028C20.7082 34.1341 21.4494 34.5535 22.1452 34.5535V33.0178C22.1452 32.8142 22.2257 32.6189 22.3689 32.4749C22.5121 32.3309 22.7063 32.25 22.9088 32.25H23.5346L21.392 19.3226C21.3738 19.2126 21.3796 19.1 21.409 18.9925C21.4385 18.8849 21.4909 18.7852 21.5626 18.7001C21.6342 18.615 21.7235 18.5466 21.8241 18.4997C21.9247 18.4529 22.0343 18.4286 22.1452 18.4286H29.9533C30.1373 16.7754 30.4457 14.9626 31.3256 12.7656C31.8068 11.5639 32.0719 10.0301 32.0721 8.44642C32.0721 6.13326 31.4792 4.03845 30.4016 2.54823C29.1827 0.861055 27.4245 0.0037433 25.1766 0H25.156C22.418 0 20.2131 0.893785 18.6021 1.54685C17.5634 1.96763 16.7431 2.3005 16.0395 2.30357C15.3293 2.3005 14.5089 1.96763 13.4703 1.54685C11.8593 0.893785 9.65416 0 6.91637 0H6.89575C4.64782 0.0037433 2.88966 0.861055 1.67015 2.54813C0.592862 4.03835 0 6.13326 0 8.44642C0 10.0301 0.265265 11.5634 0.746446 12.7656C1.87432 15.582 2.07325 17.7891 2.28372 20.1258V20.1258ZM8.37499 30.6679C8.28075 30.7024 8.18066 30.7179 8.08045 30.7135C7.98024 30.7091 7.88188 30.6849 7.79099 30.6422C7.70011 30.5995 7.61849 30.5392 7.5508 30.4648C7.4831 30.3904 7.43067 30.3033 7.3965 30.2084C5.81197 25.8243 5.5447 22.8718 5.30989 20.2667C5.10065 17.9494 4.91986 15.948 3.8736 13.3409C3.7978 13.1521 3.79972 12.9407 3.87893 12.7532C3.95814 12.5658 4.10816 12.4177 4.29598 12.3415C4.4838 12.2653 4.69403 12.2672 4.88044 12.3468C5.06684 12.4265 5.21414 12.5773 5.28994 12.7662C6.42049 15.5835 6.61989 17.7909 6.83084 20.128C7.05773 22.64 7.31479 25.487 8.83183 29.6841C8.90097 29.8755 8.89168 30.0866 8.80601 30.2711C8.72034 30.4556 8.5653 30.5983 8.37499 30.6679V30.6679ZM4.39 4.04085C5.024 3.4017 5.88242 3.06394 6.87265 3.06394C7.07518 3.06394 7.26941 3.14484 7.41262 3.28884C7.55582 3.43284 7.63628 3.62815 7.63628 3.8318C7.63628 4.03544 7.55582 4.23075 7.41262 4.37475C7.26941 4.51875 7.07518 4.59965 6.87265 4.59965C6.28084 4.59965 5.82266 4.77165 5.47139 5.12535C4.88531 5.71621 4.57776 6.86128 4.58177 8.43673C4.58203 8.53757 4.56254 8.63747 4.52441 8.73073C4.48627 8.82399 4.43025 8.90879 4.35952 8.98028C4.2888 9.05177 4.20477 9.10855 4.11222 9.14738C4.01967 9.18621 3.92043 9.20634 3.82014 9.2066H3.81814C3.61594 9.2066 3.422 9.12597 3.27885 8.98238C3.13569 8.83879 3.05502 8.64398 3.05451 8.44066C3.04936 6.41995 3.49866 4.93953 4.39 4.04085V4.04085Z" fill="#DE0D1D"/>
<path d="M25.1992 38.3926H29.781V42.9997H25.1992V38.3926Z" fill="#DE0D1D"/>
<path d="M29.771 23.9299C29.7377 24.1308 29.6264 24.3101 29.4616 24.4285C29.2968 24.5469 29.0919 24.5946 28.8922 24.5611C28.6924 24.5277 28.514 24.4157 28.3962 24.25C28.2785 24.0843 28.2311 23.8783 28.2644 23.6774L28.8798 19.9644H26.101L26.7165 23.6774C26.733 23.7769 26.7298 23.8787 26.7072 23.9769C26.6846 24.0752 26.6429 24.168 26.5846 24.25C26.5263 24.3321 26.4525 24.4018 26.3674 24.4552C26.2823 24.5086 26.1876 24.5446 26.0887 24.5611C26.0469 24.5681 26.0046 24.5716 25.9622 24.5716C25.7816 24.5714 25.6069 24.5068 25.4691 24.3893C25.3314 24.2718 25.2395 24.109 25.2098 23.9299L24.5525 19.9644H23.0464L25.0828 32.2501H29.898L31.9344 19.9644H30.4283L29.771 23.9299Z" fill="#DE0D1D"/>
<path d="M23.6724 33.7856H31.3086V36.8571H23.6724V33.7856Z" fill="#DE0D1D"/>
<path d="M41.9943 19.2915C41.9691 19.4936 41.8652 19.6773 41.7054 19.8024C41.5455 19.9275 41.3429 19.9836 41.1419 19.9586C41.1133 19.9548 38.2096 19.616 36.7339 20.929C36.1669 21.4339 35.891 22.123 35.891 23.0358C35.891 24.3901 36.5668 25.2885 37.9576 25.7809C38.6968 26.0484 39.3354 26.5396 39.7858 27.1868C40.2361 27.834 40.4761 28.6056 40.4728 29.3956V32.2501H38.9455V29.3956C38.9491 28.9234 38.8072 28.4617 38.5394 28.0739C38.2716 27.686 37.891 27.391 37.4498 27.2293C35.4596 26.5238 34.3638 25.0351 34.3638 23.0358C34.3638 21.6748 34.8219 20.5777 35.7259 19.7753C37.7218 18.0044 41.1849 18.4162 41.3309 18.4344C41.4305 18.4469 41.5266 18.4789 41.6138 18.5288C41.701 18.5786 41.7776 18.6452 41.8392 18.7248C41.9008 18.8044 41.9462 18.8954 41.9728 18.9927C41.9994 19.0899 42.0068 19.1915 41.9943 19.2915Z" fill="#DE0D1D"/>
</svg>
