<svg width="46" height="46" viewBox="0 0 46 46" fill="none" xmlns="http://www.w3.org/2000/svg">
<path d="M28.1119 3.95448C28.1119 11.1292 33.949 16.9664 41.1237 16.9664C42.76 16.9664 44.3535 16.6664 45.8623 16.0759C45.9575 15.3985 46.004 14.7099 45.9995 14.0146C45.975 10.3211 44.5196 6.83145 41.9012 4.18888C39.2825 1.54613 35.8064 0.0590357 32.1133 0.00171545C30.9174 -0.0167025 29.7425 0.113391 28.609 0.382204C28.2793 1.53786 28.1119 2.7397 28.1119 3.95448V3.95448ZM37.7342 9.98416H40.4295V12.6945H37.7342V9.98416ZM32.7628 4.96908H35.4581V7.6794H32.7628V4.96908Z" fill="#DE0D1D"/>
<path d="M41.1238 19.6617C32.4629 19.6617 25.4167 12.6154 25.4167 3.95449C25.4167 3.11733 25.485 2.28529 25.6159 1.46492C24.6912 1.92501 23.8143 2.48914 22.9999 3.1521C20.4314 1.06072 17.2407 -0.0500202 13.8865 0.00172981C10.1933 0.0590501 6.7173 1.54614 4.09862 4.18899C1.48013 6.83156 0.0247481 10.3212 0.000310604 14.0147C-0.0242167 17.7212 1.40493 21.2399 3.91687 23.8645C6.24301 21.6568 9.33804 20.409 12.5711 20.409C19.1371 20.409 24.5425 25.47 25.0932 31.8958C25.8961 32.521 26.4139 33.4958 26.4139 34.5898V46H32.3261L32.6976 45.6979C35.1116 43.7344 37.0941 41.2113 38.4307 38.4014C39.7673 35.5914 40.4738 32.4614 40.4738 29.3496V25.3085C42.5666 23.703 44.1412 21.5678 45.064 19.1626C43.7843 19.4937 42.4657 19.6617 41.1238 19.6617V19.6617Z" fill="#DE0D1D"/>
<path d="M12.571 23.1045C9.91564 23.1045 7.37819 24.1756 5.52588 26.0606V29.3497C5.52588 32.4614 6.23241 35.5915 7.56901 38.4015C8.90562 41.2114 10.8881 43.7345 13.3021 45.6979L13.6736 46.0001H19.5858V34.59C19.5858 32.9497 20.7487 31.5763 22.2933 31.2499C21.4736 26.6266 17.4259 23.1045 12.571 23.1045V23.1045ZM11.3202 32.2424H8.62486V29.5321H11.3202V32.2424ZM14.1952 38.3095H11.4999V35.5992H14.1952V38.3095ZM17.0702 29.3319H14.3749V26.6216H17.0702V29.3319Z" fill="#DE0D1D"/>
</svg>
