<svg width="26" height="26" viewBox="0 0 26 26" fill="none" xmlns="http://www.w3.org/2000/svg">
<path fill-rule="evenodd" clip-rule="evenodd" d="M19.4299 6.63652C19.4299 2.61929 16.6387 0 13.6999 0C10.7561 0 8.02728 2.59313 8.02728 6.63652H8.02563C8.03712 9.34738 10.5887 14.483 13.7294 14.483C16.8684 14.483 19.4135 9.34738 19.4299 6.63652V6.63652Z" fill="#DE0D1D"/>
<path fill-rule="evenodd" clip-rule="evenodd" d="M21.9599 17.9507C20.8886 17.9502 19.861 18.3737 19.1028 19.1279C18.3447 19.8821 17.9181 20.9053 17.9167 21.9728C17.9167 23.0409 18.3426 24.0652 19.1005 24.8204C19.8584 25.5756 20.8864 25.9999 21.9583 25.9999C23.0302 25.9999 24.0581 25.5756 24.8161 24.8204C25.574 24.0652 25.9998 23.0409 25.9998 21.9728C25.9989 20.9058 25.5729 19.8827 24.8154 19.1285C24.0579 18.3743 23.0308 17.9507 21.9599 17.9507V17.9507ZM22.8394 22.8247V24.4237H21.1116V22.8247H19.4247V21.1357H21.1116V19.4582H22.8394V21.1357H24.4623V22.8247H22.8394Z" fill="#DE0D1D"/>
<path fill-rule="evenodd" clip-rule="evenodd" d="M15.2308 21.1572C15.2308 19.1282 16.1251 17.3084 17.5379 16.074C18.2943 15.4101 18.25 15.469 17.5904 15.7878C15.6902 16.7067 13.1173 16.9749 13.1173 16.9749C13.1173 16.9749 8.3456 16.5056 6.93935 14.6221C0.20347 14.6221 0 24.3733 0 24.3733H16.0398C15.508 23.3842 15.2301 22.2793 15.2308 21.1572V21.1572Z" fill="#DE0D1D"/>
</svg>
