<svg width="27" height="26" viewBox="0 0 27 26" fill="none" xmlns="http://www.w3.org/2000/svg">
<path d="M14.3438 11.2667C14.3438 11.0368 14.2549 10.8164 14.0966 10.6538C13.9384 10.4913 13.7238 10.4 13.5 10.4C13.2762 10.4 13.0616 10.4913 12.9034 10.6538C12.7451 10.8164 12.6562 11.0368 12.6562 11.2667V14.7333H9.28125C9.05747 14.7333 8.84286 14.8246 8.68463 14.9872C8.52639 15.1497 8.4375 15.3701 8.4375 15.6C8.4375 15.8299 8.52639 16.0503 8.68463 16.2128C8.84286 16.3754 9.05747 16.4667 9.28125 16.4667H12.6562V19.9333C12.6562 20.1632 12.7451 20.3836 12.9034 20.5462C13.0616 20.7087 13.2762 20.8 13.5 20.8C13.7238 20.8 13.9384 20.7087 14.0966 20.5462C14.2549 20.3836 14.3438 20.1632 14.3438 19.9333V16.4667H17.7188C17.9425 16.4667 18.1571 16.3754 18.3154 16.2128C18.4736 16.0503 18.5625 15.8299 18.5625 15.6C18.5625 15.3701 18.4736 15.1497 18.3154 14.9872C18.1571 14.8246 17.9425 14.7333 17.7188 14.7333H14.3438V11.2667ZM8.4375 0.866667C8.4375 0.636812 8.52639 0.416372 8.68463 0.253841C8.84286 0.0913094 9.05747 0 9.28125 0H17.7188C17.9425 0 18.1571 0.0913094 18.3154 0.253841C18.4736 0.416372 18.5625 0.636812 18.5625 0.866667V5.2H21.9375C23.2802 5.2 24.5678 5.74786 25.5172 6.72304C26.4666 7.69823 27 9.02087 27 10.4V20.8C27 22.1791 26.4666 23.5018 25.5172 24.477C24.5678 25.4521 23.2802 26 21.9375 26H5.0625C3.71984 26 2.43217 25.4521 1.48277 24.477C0.533369 23.5018 0 22.1791 0 20.8V10.4C0 9.02087 0.533369 7.69823 1.48277 6.72304C2.43217 5.74786 3.71984 5.2 5.0625 5.2H8.4375V0.866667ZM16.875 1.73333H10.125V5.2H16.875V1.73333ZM5.0625 6.93333C4.16739 6.93333 3.30895 7.29857 2.67601 7.9487C2.04308 8.59882 1.6875 9.48058 1.6875 10.4V20.8C1.6875 21.7194 2.04308 22.6012 2.67601 23.2513C3.30895 23.9014 4.16739 24.2667 5.0625 24.2667H21.9375C22.8326 24.2667 23.691 23.9014 24.324 23.2513C24.9569 22.6012 25.3125 21.7194 25.3125 20.8V10.4C25.3125 9.48058 24.9569 8.59882 24.324 7.9487C23.691 7.29857 22.8326 6.93333 21.9375 6.93333H5.0625Z" fill="#DE0D1D"/>
</svg>
