<svg width="31" height="28" viewBox="0 0 31 28" fill="none" xmlns="http://www.w3.org/2000/svg">
<path d="M12.3164 11.41C10.855 11.0327 9.346 11.1949 8.08434 11.8479C6.85173 11.2117 5.29964 11.0342 3.8302 11.3937C2.09126 11.823 0.706266 13.0535 0.216889 14.6038C-0.200501 15.9221 -0.0113442 17.2768 0.748782 18.418C1.43087 19.442 1.77711 20.7493 1.77711 22.3035V24.7763C1.77711 27.9265 7.19749 27.929 7.19749 24.7763V23.1334C7.19749 22.0825 8.97468 22.0825 8.97468 23.1334V24.7763C8.97468 27.9265 14.3062 27.929 14.3062 24.7763V22.3035C14.3062 20.7493 14.6524 19.442 15.3344 18.418C17.1109 15.7506 15.5685 12.2477 12.3164 11.41Z" fill="#DE0D1D"/>
<path d="M30.1429 14.6037C29.1924 11.5944 25.2106 10.3423 22.3017 11.8477C20.5768 10.9575 18.3104 10.9396 16.4613 12.165C18.1479 14.1927 18.3508 16.9946 16.8608 19.2322C16.3445 20.007 16.0833 21.0403 16.0833 22.3033V24.7762C16.0833 27.9264 21.4148 27.9289 21.4148 24.7762V23.1332C21.4148 22.0824 23.1919 22.0824 23.1919 23.1332V24.7762C23.1919 27.9264 28.5827 27.9289 28.5827 24.7762V22.3033C28.5827 20.7491 28.9289 19.4418 29.6109 18.4178C30.3711 17.2766 30.5603 15.9218 30.1429 14.6037Z" fill="#DE0D1D"/>
<path d="M29.4714 3.25937H23.9817C23.0203 3.25937 22.0588 3.00298 21.2014 2.61869L17.0934 0.755373C15.9897 0.260845 14.7541 0 13.5166 0H2.66575C1.19578 0 0 1.09632 0 2.41142V4.05437C0 4.49378 0.397407 4.84932 0.888563 4.84932H1.77713V7.23422C1.77713 8.54932 3.06179 9.61911 4.53176 9.61911H11.6404C13.1104 9.61911 14.3062 8.54932 14.3062 7.23422V4.93202C14.9969 5.01213 15.6779 5.15881 16.2986 5.43706L20.4065 7.27384C21.5086 7.76758 22.746 8.02922 23.9817 8.02922H29.4714C29.9626 8.02922 30.36 7.67368 30.36 7.23427V4.05437C30.36 3.61496 29.9626 3.25937 29.4714 3.25937ZM5.42038 8.02922H4.53176C4.04233 8.02922 3.55431 7.67288 3.55431 7.23427V4.84932H5.42033V8.02922H5.42038ZM8.9747 8.02922H7.19751V4.84932H8.9747V8.02922ZM12.5291 7.23422C12.5291 7.67283 12.1299 8.02916 11.6405 8.02916H10.7519V4.84932H12.5291V7.23422H12.5291ZM28.5828 6.43927H26.8056V4.84932H28.5828V6.43927Z" fill="#DE0D1D"/>
</svg>
