<svg width="26" height="25" viewBox="0 0 26 25" fill="none" xmlns="http://www.w3.org/2000/svg">
<path d="M7.3552 1.95058C6.48245 1.24687 5.38616 0.891826 4.27323 0.952461C3.16031 1.0131 2.10774 1.48521 1.31419 2.27971C0.527175 3.08401 0.0610618 4.15545 0.00558819 5.28775C-0.0498854 6.42006 0.309203 7.53317 1.01372 8.41278C2.28243 5.54696 4.53715 3.24932 7.3552 1.95058V1.95058Z" fill="#DE0D1D"/>
<path d="M13.2372 6.82356C13.2372 6.63194 13.1623 6.44818 13.0288 6.31268C12.8953 6.17719 12.7143 6.10107 12.5256 6.10107C12.3369 6.10107 12.1559 6.17719 12.0224 6.31268C11.8889 6.44818 11.814 6.63194 11.814 6.82356V14.0484L17.3964 16.858C17.5662 16.9421 17.762 16.9543 17.9407 16.8918C18.1194 16.8293 18.2663 16.6973 18.3492 16.5249C18.432 16.3524 18.444 16.1536 18.3824 15.9722C18.3209 15.7908 18.1909 15.6416 18.021 15.5576L13.2293 13.1493L13.2372 6.82356Z" fill="#DE0D1D"/>
<path d="M20.465 21.4976C21.9134 20.0081 22.9195 18.1348 23.3684 16.0919C23.8173 14.0491 23.6907 11.9192 23.0032 9.94598C22.4523 10.0449 21.8897 10.0584 21.3348 9.98611C22.1681 12.0454 22.2731 14.3341 21.6319 16.4631C20.9908 18.592 19.6431 20.4299 17.8181 21.664C15.993 22.8981 13.8033 23.4524 11.6211 23.2326C9.439 23.0128 7.39922 22.0324 5.84865 20.4582C4.29807 18.884 3.33242 16.8132 3.1159 14.5978C2.89937 12.3824 3.44534 10.1593 4.66096 8.30641C5.87658 6.45355 7.68681 5.08534 9.78384 4.43444C11.8809 3.78354 14.1352 3.89013 16.1636 4.73608C16.1336 4.49643 16.1177 4.25517 16.1161 4.0136C16.1193 3.68797 16.1484 3.36313 16.2031 3.04227C13.8409 2.21771 11.2734 2.22852 8.91793 3.07294C6.5625 3.91737 4.55762 5.54576 3.22917 7.69343C1.90072 9.8411 1.3268 12.3818 1.6007 14.9025C1.8746 17.4233 2.98021 19.7759 4.73783 21.5779L2.72153 23.625C2.57368 23.7782 2.49187 23.9849 2.4941 24.1994C2.49632 24.4139 2.5824 24.6188 2.73339 24.7689C2.88438 24.919 3.08791 25.002 3.29922 24.9998C3.51053 24.9975 3.7123 24.9101 3.86015 24.7568L5.96343 22.6215C7.88686 24.0992 10.2357 24.8935 12.6477 24.8819C15.0598 24.8703 17.4011 24.0534 19.3106 22.5573L21.4771 24.7568C21.6284 24.8884 21.823 24.9571 22.022 24.9493C22.221 24.9415 22.4098 24.8577 22.5506 24.7147C22.6914 24.5718 22.7739 24.3801 22.7816 24.1781C22.7893 23.9761 22.7216 23.7785 22.592 23.625L20.465 21.4976Z" fill="#DE0D1D"/>
<path d="M22.0464 8.02757C24.2299 8.02757 26 6.23054 26 4.01378C26 1.79703 24.2299 0 22.0464 0C19.863 0 18.0929 1.79703 18.0929 4.01378C18.0929 6.23054 19.863 8.02757 22.0464 8.02757Z" fill="#DE0D1D"/>
</svg>
