<svg width="25" height="24" viewBox="0 0 25 24" fill="none" xmlns="http://www.w3.org/2000/svg">
<path d="M10.2942 16.7974H13.235V18.9582H10.2942V16.7974Z" fill="#DE0D1D"/>
<path d="M24.5152 16.3817L19.2824 10.3147H16.9102V7.43361H18.3807V8.87417H23.5272V4.5525H18.3807V5.99305H16.9102V0L11.0678 1.61169C10.6665 1.20483 10.1044 0.951104 9.48261 0.951104C8.26642 0.951104 7.27697 1.92045 7.27697 3.11194C7.27697 4.30342 8.26642 5.27277 9.48261 5.27277C10.6988 5.27277 11.6883 4.30342 11.6883 3.11194C11.6883 3.05374 11.6852 2.99626 11.6806 2.93922L15.4398 1.90221V10.3147H7.75981L4.92875 3.90852C4.52149 2.98709 3.59605 2.39166 2.57106 2.39166C0.779295 2.39166 -0.463805 4.14818 0.165588 5.79229L3.82656 15.3567H16.5862L20.392 19.4364C21.2739 20.518 22.8864 20.7037 24.0007 19.8534C25.0986 19.0156 25.3246 17.4907 24.5152 16.3817V16.3817Z" fill="#DE0D1D"/>
<path d="M16.028 20.3984H7.49952L6.61726 22.5593H4.41162V23.9998H19.1159V22.5593H16.9103L16.028 20.3984Z" fill="#DE0D1D"/>
</svg>
