<svg width="25" height="25" viewBox="0 0 25 25" fill="none" xmlns="http://www.w3.org/2000/svg">
<path d="M13.2353 11.7647C14.0153 11.7647 14.7634 12.0746 15.315 12.6262C15.8666 13.1777 16.1765 13.9258 16.1765 14.7059H14.7059C14.7059 14.3159 14.5509 13.9418 14.2752 13.666C13.9994 13.3902 13.6253 13.2353 13.2353 13.2353H2.94118C2.55115 13.2353 2.1771 13.3902 1.90131 13.666C1.62552 13.9418 1.47059 14.3159 1.47059 14.7059V16.9118C1.47059 18.9809 3.79265 20.5882 8.08824 20.5882C8.89412 20.5882 9.62941 20.5324 10.2941 20.4265V21.9074C9.60882 22.0074 8.87206 22.0588 8.08824 22.0588C3.07059 22.0588 0 19.9324 0 16.9118V14.7059C0 13.9258 0.309873 13.1777 0.86145 12.6262C1.41303 12.0746 2.16113 11.7647 2.94118 11.7647H13.2353ZM22.0588 14.7059H23.5294C23.5294 13.9258 23.2195 13.1777 22.668 12.6262C22.1164 12.0746 21.3683 11.7647 20.5882 11.7647H16.5221C16.9064 12.1932 17.2031 12.6928 17.3956 13.2353H20.5882C20.9783 13.2353 21.3523 13.3902 21.6281 13.666C21.9039 13.9418 22.0588 14.3159 22.0588 14.7059ZM8.08824 0C8.76416 -1.0072e-08 9.43346 0.133132 10.0579 0.391796C10.6824 0.65046 11.2498 1.02959 11.7278 1.50754C12.2057 1.98549 12.5848 2.55289 12.8435 3.17736C13.1022 3.80183 13.2353 4.47114 13.2353 5.14706C13.2353 5.82298 13.1022 6.49228 12.8435 7.11675C12.5848 7.74122 12.2057 8.30863 11.7278 8.78658C11.2498 9.26453 10.6824 9.64366 10.0579 9.90232C9.43346 10.161 8.76416 10.2941 8.08824 10.2941C6.72315 10.2941 5.41398 9.75184 4.44872 8.78658C3.48345 7.82132 2.94118 6.51214 2.94118 5.14706C2.94118 3.78197 3.48345 2.4728 4.44872 1.50754C5.41398 0.542278 6.72315 2.03414e-08 8.08824 0V0ZM8.08824 1.47059C7.11317 1.47059 6.17805 1.85793 5.48858 2.5474C4.79911 3.23687 4.41176 4.172 4.41176 5.14706C4.41176 6.12212 4.79911 7.05724 5.48858 7.74672C6.17805 8.43619 7.11317 8.82353 8.08824 8.82353C9.0633 8.82353 9.99842 8.43619 10.6879 7.74672C11.3774 7.05724 11.7647 6.12212 11.7647 5.14706C11.7647 4.172 11.3774 3.23687 10.6879 2.5474C9.99842 1.85793 9.0633 1.47059 8.08824 1.47059ZM18.3824 2.94118C19.3574 2.94118 20.2925 3.32852 20.982 4.01799C21.6715 4.70746 22.0588 5.64259 22.0588 6.61765C22.0588 7.59271 21.6715 8.52783 20.982 9.2173C20.2925 9.90678 19.3574 10.2941 18.3824 10.2941C17.4073 10.2941 16.4722 9.90678 15.7827 9.2173C15.0932 8.52783 14.7059 7.59271 14.7059 6.61765C14.7059 5.64259 15.0932 4.70746 15.7827 4.01799C16.4722 3.32852 17.4073 2.94118 18.3824 2.94118ZM18.3824 4.41176C17.7973 4.41176 17.2362 4.64417 16.8226 5.05785C16.4089 5.47154 16.1765 6.03261 16.1765 6.61765C16.1765 7.20268 16.4089 7.76376 16.8226 8.17744C17.2362 8.59112 17.7973 8.82353 18.3824 8.82353C18.9674 8.82353 19.5285 8.59112 19.9421 8.17744C20.3558 7.76376 20.5882 7.20268 20.5882 6.61765C20.5882 6.03261 20.3558 5.47154 19.9421 5.05785C19.5285 4.64417 18.9674 4.41176 18.3824 4.41176ZM25 18.3824V22.7941C25 23.3792 24.7676 23.9402 24.3539 24.3539C23.9402 24.7676 23.3792 25 22.7941 25H13.9706C13.3856 25 12.8245 24.7676 12.4108 24.3539C11.9971 23.9402 11.7647 23.3792 11.7647 22.7941V18.3824C11.7647 17.7973 11.9971 17.2362 12.4108 16.8226C12.8245 16.4089 13.3856 16.1765 13.9706 16.1765H22.7941C23.3792 16.1765 23.9402 16.4089 24.3539 16.8226C24.7676 17.2362 25 17.7973 25 18.3824ZM22.7941 23.5294C22.7941 23.3344 22.8716 23.1474 23.0095 23.0095C23.1474 22.8716 23.3344 22.7941 23.5294 22.7941V21.3235C22.9444 21.3235 22.3833 21.5559 21.9696 21.9696C21.5559 22.3833 21.3235 22.9444 21.3235 23.5294H22.7941ZM23.5294 18.3824C23.3344 18.3824 23.1474 18.3049 23.0095 18.167C22.8716 18.0291 22.7941 17.8421 22.7941 17.6471H21.3235C21.3235 18.2321 21.5559 18.7932 21.9696 19.2069C22.3833 19.6205 22.9444 19.8529 23.5294 19.8529V18.3824ZM13.9706 17.6471C13.9706 17.8421 13.8931 18.0291 13.7552 18.167C13.6173 18.3049 13.4303 18.3824 13.2353 18.3824V19.8529C13.8203 19.8529 14.3814 19.6205 14.7951 19.2069C15.2088 18.7932 15.4412 18.2321 15.4412 17.6471H13.9706ZM13.2353 22.7941C13.4303 22.7941 13.6173 22.8716 13.7552 23.0095C13.8931 23.1474 13.9706 23.3344 13.9706 23.5294H15.4412C15.4412 22.9444 15.2088 22.3833 14.7951 21.9696C14.3814 21.5559 13.8203 21.3235 13.2353 21.3235V22.7941ZM18.3824 18.3824C17.7973 18.3824 17.2362 18.6148 16.8226 19.0284C16.4089 19.4421 16.1765 20.0032 16.1765 20.5882C16.1765 21.1733 16.4089 21.7343 16.8226 22.148C17.2362 22.5617 17.7973 22.7941 18.3824 22.7941C18.9674 22.7941 19.5285 22.5617 19.9421 22.148C20.3558 21.7343 20.5882 21.1733 20.5882 20.5882C20.5882 20.0032 20.3558 19.4421 19.9421 19.0284C19.5285 18.6148 18.9674 18.3824 18.3824 18.3824Z" fill="#DE0D1D"/>
</svg>
