<svg width="25" height="25" viewBox="0 0 25 25" fill="none" xmlns="http://www.w3.org/2000/svg">
<path d="M23.5808 8.91536C23.1221 9.1254 22.6371 9.27267 22.139 9.35318C22.9356 11.6211 22.9382 14.0924 22.1463 16.362C21.3544 18.6315 19.815 20.5648 17.7804 21.8449C15.7458 23.1249 13.3368 23.6759 10.948 23.4075C8.55931 23.1391 6.33262 22.0671 4.6329 20.3674C2.93318 18.6677 1.86127 16.441 1.59284 14.0523C1.32441 11.6636 1.87538 9.25449 3.15546 7.21993C4.43554 5.18536 6.36879 3.64597 8.63837 2.85407C10.9079 2.06217 13.3792 2.06472 15.6471 2.86131C15.7276 2.3632 15.8748 1.87823 16.085 1.41951C13.493 0.523259 10.6737 0.532371 8.0875 1.44536C5.50134 2.35834 3.30117 4.12124 1.84632 6.44614C0.391468 8.77104 -0.232083 11.5205 0.0775055 14.2456C0.387093 16.9706 1.61153 19.5102 3.55082 21.4495C5.49012 23.3888 8.02968 24.6132 10.7547 24.9228C13.4798 25.2324 16.2293 24.6089 18.5542 23.154C20.8791 21.6992 22.642 19.499 23.555 16.9128C24.468 14.3267 24.4771 11.5074 23.5808 8.91536V8.91536Z" fill="#DE0D1D"/>
<path d="M13.8653 3.6005C15.1926 5.02662 16.1945 6.72391 16.8017 8.57508H12.733V3.47217H11.6007V8.58263H7.53196C8.14044 6.7281 9.14498 5.0281 10.4759 3.6005C9.81828 3.71954 9.17542 3.90936 8.55858 4.16665C7.58589 5.50625 6.84348 6.99873 6.36191 8.58263H3.818C3.61763 8.97995 3.44609 9.39115 3.30469 9.81307H6.04486C5.83221 10.8056 5.72342 11.8175 5.72027 12.8325C5.72236 13.9428 5.84896 15.0493 6.0977 16.1313H3.42547C3.58163 16.5545 3.76833 16.9657 3.98407 17.3618H6.4223C6.88444 18.8079 7.56955 20.1731 8.4529 21.4079C9.08546 21.6792 9.74627 21.8792 10.4231 22.0042C9.1911 20.6604 8.24361 19.0812 7.63764 17.3618H11.6082V22.1476H12.7406V17.3618H16.6961C16.088 19.0819 15.1379 20.6612 13.9031 22.0042C14.5831 21.8749 15.2465 21.6698 15.8808 21.3928C16.7628 20.1626 17.4478 18.8027 17.9114 17.3618H20.327C20.5417 16.973 20.7284 16.5694 20.8856 16.154H18.2058C18.4546 15.0719 18.5812 13.9654 18.5832 12.8552C18.5801 11.8402 18.4713 10.8282 18.2586 9.83572H20.9762C20.9309 9.70739 20.8856 9.58661 20.8328 9.46583C19.9037 9.40761 19.0037 9.1197 18.2134 8.62793H17.9416C17.9416 8.54489 17.8812 8.4694 17.8586 8.38637C17.1837 7.89412 16.6265 7.25827 16.2271 6.52466C15.8276 5.79106 15.5959 4.97797 15.5487 4.144C15.0059 3.91014 14.4423 3.72816 13.8653 3.6005V3.6005ZM11.6007 16.1238H7.26775C6.7363 14.0463 6.713 11.8713 7.19981 9.78288H11.6007V16.1238ZM17.4509 12.8325C17.4472 13.9449 17.3078 15.0527 17.0358 16.1313H12.733V9.81307H17.1339C17.3507 10.8048 17.4571 11.8174 17.4509 12.8325Z" fill="#DE0D1D"/>
<path d="M21.2258 7.54869C23.3103 7.54869 25.0001 5.85886 25.0001 3.77435C25.0001 1.68983 23.3103 0 21.2258 0C19.1412 0 17.4514 1.68983 17.4514 3.77435C17.4514 5.85886 19.1412 7.54869 21.2258 7.54869Z" fill="#DE0D1D"/>
</svg>
