<svg width="30" height="30" viewBox="0 0 30 30" fill="none" xmlns="http://www.w3.org/2000/svg">
<path d="M28.713 17.1815C28.1008 16.5533 27.2697 16.1369 26.4223 15.9663V19.3943C26.4223 21.3332 24.844 22.9099 22.9032 22.9099C21.8471 22.9099 20.9094 22.4333 20.2639 21.6953C19.6185 22.4334 18.6808 22.9099 17.6246 22.9099C16.5685 22.9099 15.6308 22.4333 14.9853 21.6953C14.3399 22.4334 13.4022 22.9099 12.346 22.9099C11.2899 22.9099 10.3522 22.4333 9.70675 21.6953C9.06129 22.4334 8.12358 22.9099 7.06745 22.9099C5.12663 22.9099 3.54839 21.3332 3.54839 19.3943V15.9676C1.54305 16.3759 0 18.1512 0 20.2732C0 21.9134 0.670264 23.4583 1.83525 24.6214C2.4315 25.217 3.16176 25.6908 3.96504 26.0058C4.8878 28.3774 7.14217 29.9998 9.70675 29.9998H20.2639C22.8267 29.9998 25.0786 28.3807 26.0031 26.0127C28.3769 25.1098 30 22.8584 30 20.2732C30 19.0861 29.5369 17.9823 28.713 17.1815Z" fill="#DE0D1D"/>
<path d="M27.0082 3.77742C25.57 1.43854 23.0192 0 20.2639 0C18.5568 0 16.8806 0.556172 15.5575 1.55783C15.2147 1.80674 14.7543 1.80586 14.4252 1.56727C13.0901 0.556172 11.4138 0 9.70674 0C6.93343 0 4.38088 1.43854 2.959 3.77824C1.21578 4.39026 0 6.0968 0 7.96875V9.72657C0 11.8486 1.54305 13.6238 3.54839 14.0322V10.6055C3.54839 8.66655 5.12663 7.08985 7.06745 7.08985C8.12358 7.08985 9.06129 7.56645 9.70674 8.30444C10.3522 7.56639 11.2899 7.08985 12.346 7.08985C13.4022 7.08985 14.3399 7.56645 14.9853 8.30444C15.6308 7.56639 16.5685 7.08985 17.6246 7.08985C18.6808 7.08985 19.6185 7.56645 20.2639 8.30444C20.9094 7.56639 21.8471 7.08985 22.9032 7.08985C24.844 7.08985 26.4223 8.66655 26.4223 10.6055V14.0322C28.4276 13.6238 30 11.8486 30 9.72657V7.96875C30 6.09592 28.7531 4.3885 27.0082 3.77742Z" fill="#DE0D1D"/>
<path d="M17.6246 8.84766C16.6547 8.84766 15.8651 9.63645 15.8651 10.6055V14.1211H19.3842V10.6055C19.3842 9.63645 18.5946 8.84766 17.6246 8.84766Z" fill="#DE0D1D"/>
<path d="M12.346 8.84766C11.376 8.84766 10.5864 9.63645 10.5864 10.6055V14.1211H14.1055V10.6055C14.1055 9.63645 13.3159 8.84766 12.346 8.84766Z" fill="#DE0D1D"/>
<path d="M7.06739 8.84766C6.09742 8.84766 5.30786 9.63645 5.30786 10.6055V14.1211H8.82692V10.6055C8.82692 9.63645 8.03736 8.84766 7.06739 8.84766Z" fill="#DE0D1D"/>
<path d="M22.9032 8.84766C21.9332 8.84766 21.1437 9.63645 21.1437 10.6055V14.1211H24.6627V10.6055C24.6627 9.63645 23.8732 8.84766 22.9032 8.84766Z" fill="#DE0D1D"/>
<path d="M21.1437 15.8789V19.3945C21.1437 20.3636 21.9332 21.1523 22.9032 21.1523C23.8732 21.1523 24.6627 20.3636 24.6627 19.3945V15.8789H21.1437Z" fill="#DE0D1D"/>
<path d="M15.8651 15.8789V19.3945C15.8651 20.3636 16.6547 21.1523 17.6246 21.1523C18.5946 21.1523 19.3842 20.3636 19.3842 19.3945V15.8789H15.8651Z" fill="#DE0D1D"/>
<path d="M5.30786 15.8789V19.3945C5.30786 20.3636 6.09742 21.1523 7.06739 21.1523C8.03736 21.1523 8.82692 20.3636 8.82692 19.3945V15.8789H5.30786Z" fill="#DE0D1D"/>
<path d="M10.5864 15.8789V19.3945C10.5864 20.3636 11.376 21.1523 12.346 21.1523C13.3159 21.1523 14.1055 20.3636 14.1055 19.3945V15.8789H10.5864Z" fill="#DE0D1D"/>
</svg>
