<svg width="20" height="19" viewBox="0 0 20 19" fill="none" xmlns="http://www.w3.org/2000/svg">
<path d="M2.66655 0L0 5.42698H12.0457L15.3881 0H2.66655Z" fill="#DE0D1D"/>
<path d="M19.9999 4.74932L17.0001 0L11.7503 8.44191C10.6169 8.04123 9.38384 8.04123 8.25044 8.44191L7.2309 6.78474H1.15991L4.77059 12.5047C4.61535 13.2923 4.63383 14.1052 4.82469 14.8847C5.01554 15.6641 5.37402 16.3908 5.87425 17.0122C6.37449 17.6336 7.00401 18.1342 7.71739 18.4779C8.43077 18.8217 9.21023 19 9.99953 19C10.7888 19 11.5683 18.8217 12.2817 18.4779C12.9951 18.1342 13.6246 17.6336 14.1248 17.0122C14.625 16.3908 14.9835 15.6641 15.1744 14.8847C15.3652 14.1052 15.3837 13.2923 15.2285 12.5047L19.9999 4.74932ZM10.0004 16.5378C9.42353 16.5378 8.85964 16.3637 8.38002 16.0375C7.9004 15.7114 7.52658 15.2478 7.30583 14.7054C7.08509 14.163 7.02733 13.5662 7.13986 12.9904C7.2524 12.4146 7.53017 11.8857 7.93806 11.4706C8.34594 11.0554 8.86562 10.7727 9.43138 10.6582C9.99713 10.5437 10.5835 10.6024 11.1165 10.8271C11.6494 11.0518 12.1049 11.4322 12.4254 11.9204C12.7459 12.4085 12.9169 12.9824 12.9169 13.5695C12.916 14.3565 12.6085 15.1109 12.0617 15.6674C11.5149 16.2239 10.7736 16.5369 10.0004 16.5378V16.5378Z" fill="#DE0D1D"/>
<path d="M9.99893 14.9254C10.7353 14.9254 11.3322 14.318 11.3322 13.5687C11.3322 12.8193 10.7353 12.2119 9.99893 12.2119C9.26258 12.2119 8.66565 12.8193 8.66565 13.5687C8.66565 14.318 9.26258 14.9254 9.99893 14.9254Z" fill="#DE0D1D"/>
</svg>
