<svg width="32" height="20" viewBox="0 0 32 20" fill="none" xmlns="http://www.w3.org/2000/svg">
<path d="M12.9817 0.252085C11.4414 -0.221571 9.85086 -0.0179098 8.52104 0.801799C7.22186 0.0032023 5.58592 -0.219707 4.03711 0.231639C2.20423 0.77063 0.744418 2.31534 0.228606 4.26172C-0.211332 5.91665 -0.011957 7.61741 0.789231 9.0501C1.50817 10.3356 1.87311 11.9769 1.87311 13.9281V17.0325C1.87311 20.9873 7.58629 20.9904 7.58629 17.0325V14.9699C7.58629 13.6506 9.45948 13.6506 9.45948 14.9699V17.0325C9.45948 20.9873 15.079 20.9904 15.079 17.0325V13.9281C15.079 11.9769 15.4439 10.3356 16.1628 9.0501C18.0352 5.7014 16.4095 1.30376 12.9817 0.252085Z" fill="#DE0D1D"/>
<path d="M31.7713 4.26175C30.7695 0.483886 26.5726 -1.08807 23.5065 0.801832C21.6884 -0.315776 19.2996 -0.338219 17.3506 1.20023C19.1283 3.7458 19.3421 7.26333 17.7716 10.0725C17.2275 11.0452 16.9521 12.3424 16.9521 13.9281V17.0326C16.9521 20.9874 22.5717 20.9905 22.5717 17.0326V14.97C22.5717 13.6507 24.4448 13.6507 24.4448 14.97V17.0326C24.4448 20.9874 30.1268 20.9905 30.1268 17.0326V13.9281C30.1268 11.9769 30.4917 10.3356 31.2106 9.05013C32.0118 7.61737 32.2112 5.91662 31.7713 4.26175Z" fill="#DE0D1D"/>
</svg>
