<svg width="25" height="28" viewBox="0 0 25 28" fill="none" xmlns="http://www.w3.org/2000/svg">
<path d="M17.081 5.34243C16.628 5.37683 16.2791 5.73263 16.2791 6.16012V12.2501C16.2791 12.7628 15.8357 13.1798 15.2907 13.1798H9.7093C9.1643 13.1798 8.72093 12.7628 8.72093 12.2501V6.16012C8.72093 5.73268 8.37198 5.37683 7.91901 5.34249C3.71465 5.02306 0 8.20647 0 12.2677C0 17.1519 4.18605 25.3729 4.46378 25.9128C5.00843 27.0848 6.49041 28.0001 7.84884 28.0001C9.31628 28.0001 10.6283 26.9297 10.836 25.5618L11.2398 22.8661C11.3229 22.3184 11.9118 21.838 12.5 21.838C13.0882 21.838 13.6771 22.3184 13.76 22.8646L14.1642 25.5634C14.3717 26.9297 15.6837 28.0001 17.1512 28.0001C18.5126 28.0001 19.9981 27.0808 20.5398 25.9051C20.7809 25.4132 25 16.7377 25 12.2677C25 8.21341 21.293 5.02251 17.081 5.34243Z" fill="#DE0D1D"/>
<path d="M10.1747 4.7578H11.6282V5.74218H11.1049C10.6233 5.74218 10.2328 6.10946 10.2328 6.56249C10.2328 7.01552 10.6233 7.3828 11.1049 7.3828H11.6282V8.80467H11.1049C10.6233 8.80467 10.2328 9.17195 10.2328 9.62498C10.2328 10.078 10.6233 10.4453 11.1049 10.4453H11.6282V11.375C11.6282 11.828 12.0187 12.1953 12.5003 12.1953C12.9819 12.1953 13.3724 11.828 13.3724 11.375V10.4453H13.8956C14.3773 10.4453 14.7677 10.078 14.7677 9.62498C14.7677 9.17195 14.3773 8.80467 13.8956 8.80467H13.3724V7.3828H13.8956C14.3773 7.3828 14.7677 7.01552 14.7677 6.56249C14.7677 6.10946 14.3773 5.74218 13.8956 5.74218H13.3724V4.7578H14.8259C15.3075 4.7578 15.698 4.39052 15.698 3.93749V0.820311C15.698 0.367281 15.3075 0 14.8259 0H10.1747C9.69308 0 9.30261 0.367281 9.30261 0.820311V3.93749C9.30261 4.39052 9.69308 4.7578 10.1747 4.7578Z" fill="#DE0D1D"/>
</svg>
