<svg width="26" height="24" viewBox="0 0 26 24" fill="none" xmlns="http://www.w3.org/2000/svg">
<path fill-rule="evenodd" clip-rule="evenodd" d="M10.3273 0.960565C6.87052 -0.869452 3.80893 -0.00919361 1.26293 2.89933C-1.19303 5.70586 0.481991 10.7654 1.68527 14.4029C1.97214 15.2699 2.23272 16.0567 2.40405 16.7122C3.29256 20.1172 4.14362 22.2398 6.08241 23.7758C7.04264 24.5363 8.13197 23.229 9.28106 21.8505C10.2771 20.655 11.3179 19.4055 12.3594 19.4025C13.3834 19.3995 14.4081 20.6475 15.3907 21.843C16.5246 23.223 17.602 24.5355 18.5567 23.7758C20.0388 22.5983 20.7106 21.7343 21.525 19.3087C22.4119 16.6635 23.8455 13.4999 24.985 9.8534C25.7867 7.28837 25.8823 4.67535 23.5722 2.15458C20.2731 -1.44546 15.7015 0.41456 13.573 1.60482L16.4561 3.92984C16.5356 3.99396 16.601 4.07219 16.6484 4.16008C16.6958 4.24796 16.7243 4.34377 16.7324 4.44204C16.7405 4.54031 16.7279 4.63911 16.6954 4.7328C16.6629 4.8265 16.6111 4.91325 16.543 4.9881C16.4748 5.06296 16.3917 5.12445 16.2983 5.16907C16.205 5.21369 16.1032 5.24056 15.9988 5.24815C15.8943 5.25574 15.7894 5.2439 15.6898 5.21331C15.5903 5.18272 15.4981 5.13397 15.4186 5.06985L10.3273 0.959815V0.960565Z" fill="#DE0D1D"/>
</svg>
