<svg width="24" height="25" viewBox="0 0 24 25" fill="none" xmlns="http://www.w3.org/2000/svg">
<path d="M21.7275 20.0895V20.5359H23.4657V20.0895C23.4656 19.9711 23.4198 19.8577 23.3383 19.774C23.2569 19.6903 23.1464 19.6432 23.0312 19.6431H22.1621C22.0469 19.6432 21.9364 19.6903 21.855 19.774C21.7735 19.8577 21.7277 19.9711 21.7275 20.0895V20.0895Z" fill="#DE0D1D"/>
<path d="M21.7275 21.4287H23.4657V25.0001H21.7275V21.4287Z" fill="#DE0D1D"/>
<path d="M1.29958 11.7011C1.4363 13.2511 1.59122 15.0079 2.59499 17.6951C3.37321 19.7782 4.84255 20.0893 5.64918 20.0893C6.04517 20.0893 6.46696 19.8454 6.80618 19.4203C7.38017 18.7013 7.60163 17.6482 7.39869 16.6032C6.91525 14.1151 7.05322 12.3074 7.79718 11.3755C8.14276 10.9431 8.60202 10.7143 9.1256 10.7143C9.64919 10.7143 10.1085 10.9431 10.4538 11.3755C11.198 12.3074 11.3356 14.1151 10.8523 16.6032C10.6494 17.6482 10.8708 18.7014 11.4448 19.4203C11.7843 19.8454 12.206 20.0893 12.602 20.0893V19.1964C12.602 19.078 12.6478 18.9645 12.7293 18.8808C12.8108 18.797 12.9213 18.75 13.0366 18.75H13.3927L12.1734 11.2341C12.163 11.1701 12.1663 11.1046 12.1831 11.0421C12.1999 10.9796 12.2297 10.9216 12.2705 10.8722C12.3113 10.8227 12.362 10.7829 12.4193 10.7557C12.4766 10.7284 12.5389 10.7143 12.602 10.7143H17.0453C17.1501 9.75312 17.3256 8.69922 17.8263 7.42187C18.1001 6.72321 18.2509 5.83147 18.251 4.91071C18.251 3.56585 17.9137 2.34794 17.3005 1.48153C16.6068 0.500614 15.6063 0.00217634 14.3271 0H14.3154C12.7573 0 11.5026 0.519643 10.5858 0.89933C9.99471 1.14397 9.52789 1.3375 9.12751 1.33929C8.72332 1.3375 8.2565 1.14397 7.66545 0.89933C6.74871 0.519643 5.49383 0 3.93585 0H3.92412C2.6449 0.00217634 1.6444 0.500614 0.950421 1.48147C0.337376 2.34788 0 3.56585 0 4.91071C0 5.83147 0.150953 6.72294 0.424775 7.42187C1.06661 9.05932 1.17981 10.3425 1.29958 11.7011V11.7011ZM4.7659 17.8302C4.71227 17.8503 4.65531 17.8593 4.59829 17.8567C4.54126 17.8541 4.48529 17.8401 4.43357 17.8152C4.38185 17.7904 4.3354 17.7554 4.29688 17.7121C4.25836 17.6688 4.22852 17.6182 4.20908 17.5631C3.30738 15.0141 3.15529 13.2975 3.02166 11.783C2.90259 10.4357 2.79971 9.2721 2.20432 7.75636C2.16119 7.64656 2.16228 7.52365 2.20736 7.41468C2.25244 7.3057 2.3378 7.21959 2.44468 7.17528C2.55156 7.13097 2.6712 7.13209 2.77728 7.1784C2.88335 7.22471 2.96718 7.31241 3.01031 7.42221C3.65366 9.06016 3.76714 10.3435 3.88718 11.7023C4.0163 13.1628 4.16258 14.818 5.02587 17.2582C5.06522 17.3695 5.05993 17.4922 5.01118 17.5995C4.96243 17.7068 4.8742 17.7897 4.7659 17.8302V17.8302ZM2.49819 2.34933C2.85898 1.97773 3.34747 1.78136 3.91097 1.78136C4.02622 1.78136 4.13675 1.8284 4.21825 1.91212C4.29974 1.99584 4.34553 2.10939 4.34553 2.22779C4.34553 2.34619 4.29974 2.45974 4.21825 2.54346C4.13675 2.62718 4.02622 2.67422 3.91097 2.67422C3.5742 2.67422 3.31346 2.77422 3.11357 2.97985C2.78005 3.32338 2.60503 3.98912 2.60732 4.90508C2.60747 4.9637 2.59637 5.02179 2.57467 5.07601C2.55297 5.13023 2.52109 5.17953 2.48085 5.22109C2.4406 5.26266 2.39278 5.29567 2.34011 5.31825C2.28745 5.34083 2.23097 5.35252 2.1739 5.35268H2.17276C2.0577 5.35268 1.94733 5.3058 1.86587 5.22232C1.78441 5.13884 1.7385 5.02557 1.73821 4.90737C1.73528 3.73253 1.99096 2.87182 2.49819 2.34933V2.34933Z" fill="#DE0D1D"/>
<path d="M14.3401 22.3213H16.9474V24.9999H14.3401V22.3213Z" fill="#DE0D1D"/>
<path d="M16.9413 13.9125C16.9224 14.0293 16.8591 14.1335 16.7653 14.2024C16.6715 14.2712 16.5549 14.2989 16.4412 14.2795C16.3275 14.26 16.226 14.195 16.159 14.0986C16.092 14.0022 16.065 13.8825 16.084 13.7657L16.4342 11.6069H14.8529L15.2031 13.7657C15.2125 13.8235 15.2107 13.8827 15.1979 13.9398C15.185 13.9969 15.1613 14.0509 15.1281 14.0986C15.0949 14.1463 15.0529 14.1868 15.0045 14.2179C14.9561 14.2489 14.9022 14.2698 14.8459 14.2795C14.8221 14.2835 14.798 14.2855 14.7739 14.2856C14.6711 14.2854 14.5717 14.2479 14.4933 14.1796C14.4149 14.1113 14.3626 14.0166 14.3458 13.9125L13.9717 11.6069H13.1146L14.2735 18.7498H17.0136L18.1725 11.6069H17.3154L16.9413 13.9125Z" fill="#DE0D1D"/>
<path d="M13.4712 19.6431H17.8167V21.4288H13.4712V19.6431Z" fill="#DE0D1D"/>
<path d="M23.8972 11.2158C23.8828 11.3333 23.8237 11.4401 23.7328 11.5128C23.6418 11.5855 23.5265 11.6182 23.4121 11.6036C23.3958 11.6014 21.7434 11.4044 20.9037 12.1678C20.581 12.4613 20.424 12.862 20.424 13.3927C20.424 14.1801 20.8086 14.7024 21.6 14.9887C22.0207 15.1442 22.3841 15.4298 22.6404 15.8061C22.8967 16.1824 23.0333 16.631 23.0314 17.0902V18.7498H22.1622V17.0902C22.1642 16.8157 22.0835 16.5473 21.9311 16.3218C21.7787 16.0963 21.5621 15.9248 21.3111 15.8307C20.1785 15.4206 19.5549 14.5551 19.5549 13.3927C19.5549 12.6014 19.8157 11.9636 20.3301 11.497C21.4659 10.4675 23.4366 10.7069 23.5197 10.7175C23.5763 10.7247 23.631 10.7433 23.6807 10.7723C23.7303 10.8013 23.7739 10.84 23.8089 10.8863C23.844 10.9326 23.8698 10.9855 23.885 11.042C23.9001 11.0985 23.9043 11.1576 23.8972 11.2158Z" fill="#DE0D1D"/>
</svg>
