<svg width="25" height="25" viewBox="0 0 25 25" fill="none" xmlns="http://www.w3.org/2000/svg">
<path d="M15.2784 2.14915C15.2784 6.04842 18.4507 9.22075 22.35 9.22075C23.2392 9.22075 24.1053 9.05771 24.9253 8.73682C24.977 8.36866 25.0023 7.99444 24.9998 7.61657C24.9865 5.60922 24.1955 3.71271 22.7725 2.27654C21.3493 0.840278 19.4602 0.0320843 17.4531 0.000932298C16.8031 -0.00907735 16.1646 0.061625 15.5486 0.207717C15.3694 0.835786 15.2784 1.48895 15.2784 2.14915V2.14915ZM20.5079 5.42611H21.9727V6.8991H20.5079V5.42611ZM17.806 2.70056H19.2709V4.17354H17.806V2.70056Z" fill="#DE0D1D"/>
<path d="M22.3497 10.6856C17.6427 10.6856 13.8133 6.85614 13.8133 2.14916C13.8133 1.69418 13.8504 1.24199 13.9215 0.796146C13.419 1.04619 12.9424 1.35278 12.4998 1.71308C11.1039 0.576471 9.36984 -0.0271846 7.54691 0.000940103C5.5398 0.0320921 3.65066 0.840286 2.22749 2.2766C0.804408 3.71276 0.0134499 5.60927 0.000168805 7.61662C-0.0131611 9.63096 0.763539 11.5433 2.12871 12.9697C3.3929 11.7698 5.07496 11.0917 6.83202 11.0917C10.4005 11.0917 13.3382 13.8422 13.6375 17.3345C14.0738 17.6743 14.3552 18.2041 14.3552 18.7986V24.9997H17.5683L17.7702 24.8355C19.0822 23.7684 20.1596 22.3972 20.886 20.8701C21.6124 19.343 21.9964 17.6419 21.9964 15.9507V13.7545C23.1337 12.8819 23.9895 11.7215 24.4911 10.4143C23.7956 10.5943 23.0789 10.6856 22.3497 10.6856V10.6856Z" fill="#DE0D1D"/>
<path d="M6.83174 12.5566C5.38864 12.5566 4.00961 13.1388 3.00293 14.1632V15.9507C3.00293 17.6419 3.38691 19.343 4.11332 20.8701C4.83973 22.3973 5.91715 23.7685 7.2291 24.8356L7.431 24.9998H10.6441V18.7987C10.6441 17.9073 11.2761 17.1608 12.1156 16.9834C11.6701 14.4708 9.47029 12.5566 6.83174 12.5566V12.5566ZM6.15197 17.5228H4.68714V16.0499H6.15197V17.5228ZM7.71445 20.8201H6.24962V19.3472H7.71445V20.8201ZM9.27693 15.9411H7.8121V14.4681H9.27693V15.9411Z" fill="#DE0D1D"/>
</svg>
