<svg width="25" height="24" viewBox="0 0 25 24" fill="none" xmlns="http://www.w3.org/2000/svg">
<path d="M19.7586 0L13.4689 5.77171L16.1626 8.25366L17.5095 7.02439L16.1626 5.77171L19.7586 2.45854L21.1055 3.69951L22.4778 2.45854L19.7586 0ZM24.2567 2.45854L16.8361 9.29561L14.1296 10.1268L0.876747 22.3259L2.69377 24L9.87294 17.362L15.2732 22.3259L20.6607 17.362L15.2732 12.398L15.4892 12.1756L18.1957 11.3444L24.2567 5.77171C25.2478 4.85854 25.2478 3.37171 24.2567 2.45854V2.45854ZM5.38755 3.28976L0 8.25366L6.28971 14.0488L11.6773 9.08488L5.38755 3.28976ZM20.216 19.4341L17.5095 21.9161L19.3011 23.5668L22.0076 21.0732L20.216 19.4341Z" fill="#DE0D1D"/>
</svg>
