<svg width="15" height="15" viewBox="0 0 15 15" fill="none" xmlns="http://www.w3.org/2000/svg">
<path d="M13.6194 0.286342C13.3588 0.141314 13.0721 0.0490844 12.7758 0.014929C12.4795 -0.0192264 12.1794 0.0053619 11.8926 0.0872881C11.6058 0.169214 11.338 0.306871 11.1044 0.492387C10.8709 0.677902 10.6762 0.907637 10.5315 1.16845L6.3162 8.75438L3.90374 6.34191C3.69429 6.12505 3.44374 5.95208 3.16673 5.83308C2.88971 5.71408 2.59177 5.65145 2.29029 5.64883C1.9888 5.64621 1.68982 5.70366 1.41077 5.81782C1.13173 5.93199 0.878219 6.10058 0.66503 6.31377C0.451842 6.52696 0.283246 6.78047 0.16908 7.05951C0.0549149 7.33856 -0.00253408 7.63754 8.57287e-05 7.93903C0.00270553 8.24051 0.0653417 8.53845 0.184339 8.81547C0.303337 9.09249 0.476313 9.34303 0.693174 9.55248L5.23429 14.0936C5.66342 14.5239 6.24241 14.76 6.83957 14.76L7.15404 14.7373C7.50206 14.6886 7.83403 14.5598 8.12382 14.361C8.4136 14.1623 8.6533 13.8989 8.82403 13.5918L14.5004 3.3743C14.6453 3.1137 14.7375 2.8271 14.7717 2.53088C14.8058 2.23465 14.7813 1.9346 14.6995 1.64786C14.6177 1.36111 14.4802 1.09328 14.2949 0.859675C14.1096 0.626066 13.8801 0.431247 13.6194 0.286342V0.286342Z" fill="#1EB8A4"/>
</svg>
