<svg width="36" height="36" viewBox="0 0 36 36" fill="none" xmlns="http://www.w3.org/2000/svg">
<path fill-rule="evenodd" clip-rule="evenodd" d="M26.903 9.18904C26.903 3.62672 23.0383 0 18.9691 0C14.8931 0 11.1147 3.59049 11.1147 9.18904H11.1124C11.1283 12.9425 14.6613 20.0533 19.01 20.0533C23.3564 20.0533 26.8803 12.9425 26.903 9.18904V9.18904Z" fill="#DE0D1D"/>
<path fill-rule="evenodd" clip-rule="evenodd" d="M30.4062 24.855C28.9229 24.8544 27.5 25.4406 26.4502 26.4849C25.4005 27.5292 24.8098 28.9461 24.808 30.4241C24.808 31.9029 25.3976 33.3212 26.447 34.3669C27.4965 35.4125 28.9198 36 30.404 36C31.8881 36 33.3115 35.4125 34.3609 34.3669C35.4104 33.3212 36 31.9029 36 30.4241C35.9988 28.9467 35.4089 27.5301 34.36 26.4859C33.3111 25.4416 31.889 24.855 30.4062 24.855V24.855ZM31.624 31.6036V33.8176H29.2316V31.6036H26.896V29.265H29.2316V26.9423H31.624V29.265H33.8711V31.6036H31.624Z" fill="#DE0D1D"/>
<path fill-rule="evenodd" clip-rule="evenodd" d="M21.0889 29.2948C21.0889 26.4853 22.3272 23.9656 24.2834 22.2564C25.3308 21.3373 25.2694 21.4188 24.3561 21.8602C21.7251 23.1325 18.1625 23.5038 18.1625 23.5038C18.1625 23.5038 11.5555 22.8541 9.60838 20.2461C0.28173 20.2461 0 33.7478 0 33.7478H22.209C21.4727 32.3782 21.0879 30.8485 21.0889 29.2948V29.2948Z" fill="#DE0D1D"/>
</svg>
