<svg width="36" height="34" viewBox="0 0 36 34" fill="none" xmlns="http://www.w3.org/2000/svg">
<path d="M19.125 14.625C19.125 14.3266 19.0065 14.0405 18.7955 13.8295C18.5845 13.6185 18.2984 13.5 18 13.5C17.7016 13.5 17.4155 13.6185 17.2045 13.8295C16.9935 14.0405 16.875 14.3266 16.875 14.625V19.125H12.375C12.0766 19.125 11.7905 19.2435 11.5795 19.4545C11.3685 19.6655 11.25 19.9516 11.25 20.25C11.25 20.5484 11.3685 20.8345 11.5795 21.0455C11.7905 21.2565 12.0766 21.375 12.375 21.375H16.875V25.875C16.875 26.1734 16.9935 26.4595 17.2045 26.6705C17.4155 26.8815 17.7016 27 18 27C18.2984 27 18.5845 26.8815 18.7955 26.6705C19.0065 26.4595 19.125 26.1734 19.125 25.875V21.375H23.625C23.9234 21.375 24.2095 21.2565 24.4205 21.0455C24.6315 20.8345 24.75 20.5484 24.75 20.25C24.75 19.9516 24.6315 19.6655 24.4205 19.4545C24.2095 19.2435 23.9234 19.125 23.625 19.125H19.125V14.625ZM11.25 1.125C11.25 0.826631 11.3685 0.540484 11.5795 0.329505C11.7905 0.118527 12.0766 0 12.375 0H23.625C23.9234 0 24.2095 0.118527 24.4205 0.329505C24.6315 0.540484 24.75 0.826631 24.75 1.125V6.75H29.25C31.0402 6.75 32.7571 7.46116 34.023 8.72703C35.2888 9.9929 36 11.7098 36 13.5V27C36 28.7902 35.2888 30.5071 34.023 31.773C32.7571 33.0388 31.0402 33.75 29.25 33.75H6.75C4.95979 33.75 3.2429 33.0388 1.97703 31.773C0.711159 30.5071 0 28.7902 0 27V13.5C0 11.7098 0.711159 9.9929 1.97703 8.72703C3.2429 7.46116 4.95979 6.75 6.75 6.75H11.25V1.125ZM22.5 2.25H13.5V6.75H22.5V2.25ZM6.75 9C5.55653 9 4.41193 9.47411 3.56802 10.318C2.72411 11.1619 2.25 12.3065 2.25 13.5V27C2.25 28.1935 2.72411 29.3381 3.56802 30.182C4.41193 31.0259 5.55653 31.5 6.75 31.5H29.25C30.4435 31.5 31.5881 31.0259 32.432 30.182C33.2759 29.3381 33.75 28.1935 33.75 27V13.5C33.75 12.3065 33.2759 11.1619 32.432 10.318C31.5881 9.47411 30.4435 9 29.25 9H6.75Z" fill="#DE0D1D"/>
</svg>
