<svg width="36" height="34" viewBox="0 0 36 34" fill="none" xmlns="http://www.w3.org/2000/svg">
<path d="M10.1841 2.63332C8.97571 1.6833 7.45776 1.20399 5.91679 1.28585C4.37582 1.3677 2.91842 2.00507 1.81964 3.07764C0.729936 4.16344 0.0845472 5.60988 0.0077375 7.1385C-0.0690722 8.66711 0.428127 10.1698 1.40361 11.3573C3.1603 7.48843 6.28222 4.38662 10.1841 2.63332V2.63332Z" fill="#DE0D1D"/>
<path d="M18.3293 9.21168C18.3293 8.953 18.2255 8.70491 18.0407 8.522C17.8559 8.33909 17.6053 8.23633 17.344 8.23633C17.0827 8.23633 16.832 8.33909 16.6472 8.522C16.4625 8.70491 16.3586 8.953 16.3586 9.21168V18.9652L24.0881 22.7582C24.3233 22.8717 24.5945 22.8881 24.8419 22.8038C25.0893 22.7195 25.2927 22.5413 25.4074 22.3085C25.5221 22.0757 25.5387 21.8073 25.4535 21.5624C25.3683 21.3175 25.1883 21.1161 24.9531 21.0026L18.3184 17.7514L18.3293 9.21168Z" fill="#DE0D1D"/>
<path d="M28.336 29.0223C30.3414 27.0115 31.7345 24.4825 32.356 21.7246C32.9775 18.9668 32.8023 16.0915 31.8504 13.4276C31.0875 13.5611 30.3087 13.5794 29.5403 13.4818C30.694 16.2618 30.8394 19.3515 29.9517 22.2256C29.064 25.0998 27.198 27.5808 24.671 29.2469C22.144 30.913 19.112 31.6613 16.0906 31.3645C13.0691 31.0678 10.2448 29.7443 8.09788 27.6191C5.95093 25.4939 4.61388 22.6983 4.31407 19.7075C4.01427 16.7168 4.77022 13.7155 6.45339 11.2142C8.13656 8.71278 10.643 6.8657 13.5466 5.98698C16.4502 5.10827 19.5716 5.25216 22.3801 6.3942C22.3386 6.07068 22.3166 5.74498 22.3144 5.41885C22.3188 4.97925 22.359 4.54072 22.4349 4.10755C19.164 2.9944 15.609 3.00899 12.3477 4.14896C9.08629 5.28893 6.3103 7.48726 4.4709 10.3866C2.63151 13.286 1.83685 16.7159 2.2161 20.1189C2.59535 23.5219 4.1262 26.6979 6.55983 29.1307L3.76802 31.8942C3.56331 32.1012 3.45003 32.3801 3.45311 32.6697C3.45619 32.9593 3.57537 33.2359 3.78444 33.4385C3.9935 33.6411 4.27532 33.7533 4.56791 33.7502C4.86049 33.7472 5.13986 33.6292 5.34457 33.4223L8.25682 30.5396C10.92 32.5344 14.1722 33.6067 17.512 33.591C20.8517 33.5754 24.0936 32.4726 26.7375 30.4529L29.7374 33.4223C29.9468 33.5998 30.2162 33.6926 30.4918 33.682C30.7673 33.6715 31.0287 33.5584 31.2237 33.3654C31.4187 33.1724 31.5329 32.9137 31.5435 32.641C31.5542 32.3682 31.4604 32.1015 31.2811 31.8942L28.336 29.0223Z" fill="#DE0D1D"/>
<path d="M30.5257 10.8372C33.5489 10.8372 35.9998 8.41123 35.9998 5.41862C35.9998 2.426 33.5489 0 30.5257 0C27.5024 0 25.0515 2.426 25.0515 5.41862C25.0515 8.41123 27.5024 10.8372 30.5257 10.8372Z" fill="#DE0D1D"/>
</svg>
