<svg width="32" height="31" viewBox="0 0 32 31" fill="none" xmlns="http://www.w3.org/2000/svg">
<path d="M13.1206 21.6963H16.8693V24.4874H13.1206V21.6963Z" fill="#DE0D1D"/>
<path d="M31.2493 21.1597L24.5792 13.3232H21.5554V9.60174H23.4297V11.4625H29.9899V5.8803H23.4297V7.74102H21.5554V0L14.108 2.08177C13.5965 1.55624 12.88 1.22851 12.0874 1.22851C10.5371 1.22851 9.2759 2.48059 9.2759 4.01959C9.2759 5.55859 10.5371 6.81066 12.0874 6.81066C13.6376 6.81066 14.8989 5.55859 14.8989 4.01959C14.8989 3.94441 14.8951 3.87017 14.8891 3.79649L19.681 2.45702V13.3232H9.89137L6.28264 5.0485C5.7635 3.85832 4.58386 3.08923 3.27731 3.08923C0.993362 3.08923 -0.591208 5.35806 0.211073 7.4817L4.87769 19.8357H21.1422L25.9935 25.1053C27.1177 26.5025 29.1731 26.7423 30.5935 25.6439C31.993 24.5618 32.2811 22.5922 31.2493 21.1597V21.1597Z" fill="#DE0D1D"/>
<path d="M20.4308 26.3481H9.55966L8.43505 29.1392H5.62354V30.9999H24.367V29.1392H21.5555L20.4308 26.3481Z" fill="#DE0D1D"/>
</svg>
