<svg width="36" height="36" viewBox="0 0 36 36" fill="none" xmlns="http://www.w3.org/2000/svg">
<path d="M19.0588 16.9412C20.1821 16.9412 21.2594 17.3874 22.0536 18.1817C22.8479 18.9759 23.2941 20.0532 23.2941 21.1765H21.1765C21.1765 20.6148 20.9534 20.0762 20.5562 19.6791C20.1591 19.2819 19.6205 19.0588 19.0588 19.0588H4.23529C3.67366 19.0588 3.13503 19.2819 2.73789 19.6791C2.34076 20.0762 2.11765 20.6148 2.11765 21.1765V24.3529C2.11765 27.3325 5.46141 29.6471 11.6471 29.6471C12.8075 29.6471 13.8664 29.5666 14.8235 29.4141V31.5466C13.8367 31.6906 12.7758 31.7647 11.6471 31.7647C4.42165 31.7647 0 28.7026 0 24.3529V21.1765C0 20.0532 0.446217 18.9759 1.24049 18.1817C2.03476 17.3874 3.11202 16.9412 4.23529 16.9412H19.0588ZM31.7647 21.1765H33.8824C33.8824 20.0532 33.4361 18.9759 32.6419 18.1817C31.8476 17.3874 30.7703 16.9412 29.6471 16.9412H23.7918C24.3452 17.5582 24.7725 18.2776 25.0496 19.0588H29.6471C30.2087 19.0588 30.7473 19.2819 31.1445 19.6791C31.5416 20.0762 31.7647 20.6148 31.7647 21.1765ZM11.6471 0C12.6204 -1.45037e-08 13.5842 0.191711 14.4834 0.564187C15.3827 0.936663 16.1997 1.48261 16.888 2.17086C17.5762 2.8591 18.1222 3.67617 18.4946 4.57541C18.8671 5.47464 19.0588 6.43844 19.0588 7.41177C19.0588 8.38509 18.8671 9.34889 18.4946 10.2481C18.1222 11.1474 17.5762 11.9644 16.888 12.6527C16.1997 13.3409 15.3827 13.8869 14.4834 14.2593C13.5842 14.6318 12.6204 14.8235 11.6471 14.8235C9.68134 14.8235 7.79613 14.0426 6.40615 12.6527C5.01617 11.2627 4.23529 9.37749 4.23529 7.41177C4.23529 5.44604 5.01617 3.56083 6.40615 2.17086C7.79613 0.78088 9.68134 2.92915e-08 11.6471 0V0ZM11.6471 2.11765C10.243 2.11765 8.89639 2.67542 7.90355 3.66826C6.91071 4.6611 6.35294 6.00768 6.35294 7.41177C6.35294 8.81585 6.91071 10.1624 7.90355 11.1553C8.89639 12.1481 10.243 12.7059 11.6471 12.7059C13.0511 12.7059 14.3977 12.1481 15.3906 11.1553C16.3834 10.1624 16.9412 8.81585 16.9412 7.41177C16.9412 6.00768 16.3834 4.6611 15.3906 3.66826C14.3977 2.67542 13.0511 2.11765 11.6471 2.11765ZM26.4706 4.23529C27.8747 4.23529 29.2213 4.79307 30.2141 5.78591C31.2069 6.77875 31.7647 8.12532 31.7647 9.52941C31.7647 10.9335 31.2069 12.2801 30.2141 13.2729C29.2213 14.2658 27.8747 14.8235 26.4706 14.8235C25.0665 14.8235 23.7199 14.2658 22.7271 13.2729C21.7342 12.2801 21.1765 10.9335 21.1765 9.52941C21.1765 8.12532 21.7342 6.77875 22.7271 5.78591C23.7199 4.79307 25.0665 4.23529 26.4706 4.23529ZM26.4706 6.35294C25.6281 6.35294 24.8202 6.6876 24.2245 7.28331C23.6288 7.87901 23.2941 8.68696 23.2941 9.52941C23.2941 10.3719 23.6288 11.1798 24.2245 11.7755C24.8202 12.3712 25.6281 12.7059 26.4706 12.7059C27.313 12.7059 28.121 12.3712 28.7167 11.7755C29.3124 11.1798 29.6471 10.3719 29.6471 9.52941C29.6471 8.68696 29.3124 7.87901 28.7167 7.28331C28.121 6.6876 27.313 6.35294 26.4706 6.35294ZM36 26.4706V32.8235C36 33.666 35.6653 34.4739 35.0696 35.0696C34.4739 35.6653 33.666 36 32.8235 36H20.1176C19.2752 36 18.4672 35.6653 17.8715 35.0696C17.2758 34.4739 16.9412 33.666 16.9412 32.8235V26.4706C16.9412 25.6281 17.2758 24.8202 17.8715 24.2245C18.4672 23.6288 19.2752 23.2941 20.1176 23.2941H32.8235C33.666 23.2941 34.4739 23.6288 35.0696 24.2245C35.6653 24.8202 36 25.6281 36 26.4706ZM32.8235 33.8824C32.8235 33.6015 32.9351 33.3322 33.1337 33.1337C33.3322 32.9351 33.6015 32.8235 33.8824 32.8235V30.7059C33.0399 30.7059 32.232 31.0405 31.6363 31.6363C31.0405 32.232 30.7059 33.0399 30.7059 33.8824H32.8235ZM33.8824 26.4706C33.6015 26.4706 33.3322 26.359 33.1337 26.1605C32.9351 25.9619 32.8235 25.6926 32.8235 25.4118H30.7059C30.7059 26.2542 31.0405 27.0622 31.6363 27.6579C32.232 28.2536 33.0399 28.5882 33.8824 28.5882V26.4706ZM20.1176 25.4118C20.1176 25.6926 20.0061 25.9619 19.8075 26.1605C19.609 26.359 19.3396 26.4706 19.0588 26.4706V28.5882C19.9013 28.5882 20.7092 28.2536 21.3049 27.6579C21.9006 27.0622 22.2353 26.2542 22.2353 25.4118H20.1176ZM19.0588 32.8235C19.3396 32.8235 19.609 32.9351 19.8075 33.1337C20.0061 33.3322 20.1176 33.6015 20.1176 33.8824H22.2353C22.2353 33.0399 21.9006 32.232 21.3049 31.6363C20.7092 31.0405 19.9013 30.7059 19.0588 30.7059V32.8235ZM26.4706 26.4706C25.6281 26.4706 24.8202 26.8053 24.2245 27.401C23.6288 27.9967 23.2941 28.8046 23.2941 29.6471C23.2941 30.4895 23.6288 31.2975 24.2245 31.8932C24.8202 32.4889 25.6281 32.8235 26.4706 32.8235C27.313 32.8235 28.121 32.4889 28.7167 31.8932C29.3124 31.2975 29.6471 30.4895 29.6471 29.6471C29.6471 28.8046 29.3124 27.9967 28.7167 27.401C28.121 26.8053 27.313 26.4706 26.4706 26.4706Z" fill="#DE0D1D"/>
</svg>
