<svg width="36" height="36" viewBox="0 0 36 36" fill="none" xmlns="http://www.w3.org/2000/svg">
<path d="M33.9564 12.8375C33.2958 13.1399 32.5974 13.352 31.8802 13.4679C33.0273 16.7337 33.031 20.2924 31.8906 23.5606C30.7503 26.8287 28.5336 29.6126 25.6038 31.4559C22.674 33.2993 19.2049 34.0927 15.7652 33.7061C12.3254 33.3196 9.11897 31.776 6.67138 29.3284C4.22379 26.8808 2.68023 23.6744 2.29369 20.2346C1.90715 16.7949 2.70055 13.3258 4.54387 10.396C6.38718 7.46625 9.17106 5.24954 12.4392 4.1092C15.7074 2.96885 19.2661 2.97253 22.5319 4.11962C22.6477 3.40235 22.8598 2.70398 23.1624 2.04343C19.4299 0.75283 15.3701 0.765951 11.646 2.08065C7.92193 3.39535 4.75368 5.93393 2.6587 9.28178C0.563714 12.6296 -0.334199 16.5889 0.111608 20.513C0.557415 24.4371 2.3206 28.094 5.11318 30.8866C7.90577 33.6792 11.5627 35.4424 15.4868 35.8882C19.4109 36.334 23.3702 35.4361 26.718 33.3411C30.0659 31.2461 32.6045 28.0779 33.9192 24.3538C35.2339 20.6297 35.247 16.5699 33.9564 12.8375V12.8375Z" fill="#DE0D1D"/>
<path d="M19.966 5.18528C21.8773 7.23891 23.32 9.68299 24.1944 12.3487H18.3354V5.00049H16.7049V12.3596H10.8459C11.7221 9.68904 13.1687 7.24103 15.0853 5.18528C14.1382 5.3567 13.2125 5.63005 12.3243 6.00054C10.9236 7.92957 9.85453 10.0787 9.16107 12.3596H5.49783C5.20931 12.9317 4.96228 13.5238 4.75867 14.1314H8.70452C8.3983 15.5606 8.24165 17.0178 8.2371 18.4794C8.24011 20.0782 8.42242 21.6716 8.78061 23.2297H4.93259C5.15747 23.839 5.42631 24.4311 5.73698 25.0015H9.24803C9.91351 27.084 10.9001 29.0498 12.1721 30.8279C13.083 31.2186 14.0345 31.5066 15.0092 31.6866C13.2351 29.7515 11.8707 27.4775 10.9981 25.0015H16.7158V31.8932H18.3463V25.0015H24.0423C23.1667 27.4786 21.7985 29.7526 20.0203 31.6866C20.9995 31.5004 21.9548 31.2051 22.8683 30.8061C24.1383 29.0347 25.1248 27.0764 25.7923 25.0015H29.2708C29.58 24.4417 29.8488 23.8605 30.0752 23.2623H26.2163C26.5745 21.7042 26.7568 20.1108 26.7598 18.512C26.7552 17.0504 26.5986 15.5932 26.2924 14.164H30.2056C30.1404 13.9792 30.0752 13.8053 29.9991 13.6314C28.6613 13.5475 27.3652 13.1329 26.2272 12.4248H25.8358C25.8358 12.3052 25.7489 12.1965 25.7163 12.0769C24.7445 11.3681 23.9421 10.4525 23.3669 9.39608C22.7917 8.33969 22.458 7.16884 22.39 5.96793C21.6085 5.63117 20.7969 5.36912 19.966 5.18528V5.18528ZM16.7049 23.2188H10.4655C9.70019 20.2272 9.66663 17.0952 10.3676 14.0879H16.7049V23.2188ZM25.1293 18.4794C25.1239 20.0813 24.9231 21.6765 24.5314 23.2297H18.3354V14.1314H24.6727C24.985 15.5594 25.1381 17.0177 25.1293 18.4794Z" fill="#DE0D1D"/>
<path d="M30.5646 10.8701C33.5663 10.8701 35.9996 8.43676 35.9996 5.43506C35.9996 2.43336 33.5663 0 30.5646 0C27.5629 0 25.1295 2.43336 25.1295 5.43506C25.1295 8.43676 27.5629 10.8701 30.5646 10.8701Z" fill="#DE0D1D"/>
</svg>
