<svg width="42" height="42" viewBox="0 0 42 42" fill="none" xmlns="http://www.w3.org/2000/svg">
<path d="M40.1982 24.0544C39.3411 23.1748 38.1776 22.5918 36.9912 22.353V27.1522C36.9912 29.8667 34.7817 32.0741 32.0645 32.0741C30.5859 32.0741 29.2731 31.4068 28.3695 30.3736C27.4659 31.4069 26.1531 32.0741 24.6745 32.0741C23.1959 32.0741 21.8831 31.4068 20.9795 30.3736C20.0758 31.4069 18.763 32.0741 17.2845 32.0741C15.8059 32.0741 14.4931 31.4068 13.5894 30.3736C12.6858 31.4069 11.373 32.0741 9.89443 32.0741C7.17728 32.0741 4.96774 29.8667 4.96774 27.1522V22.3548C2.16027 22.9265 0 25.4118 0 28.3827C0 30.679 0.938369 32.8419 2.56935 34.4701C3.40409 35.304 4.42646 35.9674 5.55106 36.4084C6.84292 39.7285 9.99904 41.9999 13.5894 41.9999H28.3695C31.9574 41.9999 35.11 39.7332 36.4043 36.4179C39.7276 35.1538 42 32.002 42 28.3827C42 26.7208 41.3517 25.1755 40.1982 24.0544Z" fill="#DE0D1D"/>
<path d="M37.8115 5.28839C35.798 2.01395 32.2269 0 28.3695 0C25.9796 0 23.6328 0.778641 21.7806 2.18097C21.3006 2.52943 20.656 2.5282 20.1952 2.19417C18.3261 0.778641 15.9794 0 13.5894 0C9.7068 0 6.13323 2.01395 4.1426 5.28954C1.70209 6.14636 0 8.53552 0 11.1563V13.6172C0 16.588 2.16027 19.0733 4.96774 19.645V14.8477C4.96774 12.1332 7.17728 9.92579 9.89443 9.92579C11.373 9.92579 12.6858 10.593 13.5894 11.6262C14.4931 10.5929 15.8059 9.92579 17.2845 9.92579C18.763 9.92579 20.0758 10.593 20.9795 11.6262C21.8831 10.5929 23.1959 9.92579 24.6745 9.92579C26.1531 9.92579 27.4659 10.593 28.3695 11.6262C29.2731 10.5929 30.5859 9.92579 32.0645 9.92579C34.7817 9.92579 36.9912 12.1332 36.9912 14.8477V19.645C39.7987 19.0733 42 16.588 42 13.6172V11.1563C42 8.53429 40.2544 6.1439 37.8115 5.28839Z" fill="#DE0D1D"/>
<path d="M24.6745 12.3867C23.3166 12.3867 22.2112 13.491 22.2112 14.8477V19.7695H27.1379V14.8477C27.1379 13.491 26.0325 12.3867 24.6745 12.3867Z" fill="#DE0D1D"/>
<path d="M17.2844 12.3867C15.9264 12.3867 14.821 13.491 14.821 14.8477V19.7695H19.7477V14.8477C19.7477 13.491 18.6423 12.3867 17.2844 12.3867Z" fill="#DE0D1D"/>
<path d="M9.89437 12.3867C8.53641 12.3867 7.43103 13.491 7.43103 14.8477V19.7695H12.3577V14.8477C12.3577 13.491 11.2523 12.3867 9.89437 12.3867Z" fill="#DE0D1D"/>
<path d="M32.0645 12.3867C30.7066 12.3867 29.6012 13.491 29.6012 14.8477V19.7695H34.5279V14.8477C34.5279 13.491 33.4225 12.3867 32.0645 12.3867Z" fill="#DE0D1D"/>
<path d="M29.6012 22.2305V27.1523C29.6012 28.509 30.7066 29.6133 32.0645 29.6133C33.4225 29.6133 34.5279 28.509 34.5279 27.1523V22.2305H29.6012Z" fill="#DE0D1D"/>
<path d="M22.2112 22.2305V27.1523C22.2112 28.509 23.3166 29.6133 24.6745 29.6133C26.0325 29.6133 27.1379 28.509 27.1379 27.1523V22.2305H22.2112Z" fill="#DE0D1D"/>
<path d="M7.43103 22.2305V27.1523C7.43103 28.509 8.53641 29.6133 9.89437 29.6133C11.2523 29.6133 12.3577 28.509 12.3577 27.1523V22.2305H7.43103Z" fill="#DE0D1D"/>
<path d="M14.821 22.2305V27.1523C14.821 28.509 15.9264 29.6133 17.2844 29.6133C18.6423 29.6133 19.7477 28.509 19.7477 27.1523V22.2305H14.821Z" fill="#DE0D1D"/>
</svg>
