<svg width="25" height="24" viewBox="0 0 25 24" fill="none" xmlns="http://www.w3.org/2000/svg">
<path d="M3.33319 0L0 6.85513H15.0572L19.2351 0H3.33319Z" fill="#DE0D1D"/>
<path d="M25 5.99914L21.2501 0L14.6879 10.6635C13.2712 10.1573 11.7299 10.1573 10.3131 10.6635L9.03869 8.5702H1.44995L5.9633 15.7954C5.76925 16.7903 5.79235 17.8171 6.03092 18.8017C6.26949 19.7863 6.71759 20.7042 7.34288 21.4891C7.96817 22.274 8.75507 22.9063 9.6468 23.3406C10.5385 23.7748 11.5128 24 12.4995 24C13.4861 24 14.4604 23.7748 15.3522 23.3406C16.2439 22.9063 17.0308 22.274 17.6561 21.4891C18.2814 20.7042 18.7295 19.7863 18.968 18.8017C19.2066 17.8171 19.2297 16.7903 19.0357 15.7954L25 5.99914ZM12.5005 20.8899C11.7795 20.8899 11.0746 20.67 10.4751 20.258C9.87556 19.846 9.40828 19.2604 9.13235 18.5752C8.85642 17.8901 8.78422 17.1362 8.92489 16.4089C9.06556 15.6816 9.41278 15.0135 9.92263 14.4891C10.4325 13.9648 11.0821 13.6077 11.7893 13.463C12.4965 13.3183 13.2295 13.3926 13.8957 13.6763C14.5618 13.9601 15.1312 14.4407 15.5318 15.0573C15.9324 15.6739 16.1462 16.3988 16.1462 17.1404C16.1451 18.1345 15.7606 19.0875 15.0772 19.7904C14.3937 20.4933 13.4671 20.8887 12.5005 20.8899V20.8899Z" fill="#DE0D1D"/>
<path d="M12.4989 18.8533C13.4193 18.8533 14.1655 18.0861 14.1655 17.1396C14.1655 16.1931 13.4193 15.4258 12.4989 15.4258C11.5784 15.4258 10.8323 16.1931 10.8323 17.1396C10.8323 18.0861 11.5784 18.8533 12.4989 18.8533Z" fill="#DE0D1D"/>
</svg>
