<svg width="31" height="29" viewBox="0 0 31 29" fill="none" xmlns="http://www.w3.org/2000/svg">
<path d="M4.13336 0L0 8.28452H18.6718L23.8527 0H4.13336Z" fill="#DE0D1D"/>
<path d="M31 7.24896L26.35 0L18.2124 12.885C16.4556 12.2735 14.5442 12.2735 12.7874 12.885L11.207 10.3557H1.79651L7.39334 19.0861C7.15271 20.2883 7.18135 21.529 7.4772 22.7187C7.77304 23.9084 8.32871 25.0175 9.10411 25.9659C9.87951 26.9144 10.8553 27.6785 11.9611 28.2032C13.0669 28.7278 14.2751 29 15.4986 29C16.7221 29 17.9303 28.7278 19.0361 28.2032C20.1419 27.6785 21.1177 26.9144 21.8931 25.9659C22.6685 25.0175 23.2242 23.9084 23.52 22.7187C23.8159 21.529 23.8445 20.2883 23.6039 19.0861L31 7.24896ZM15.4999 25.2419C14.6058 25.2419 13.7317 24.9762 12.9882 24.4784C12.2448 23.9805 11.6653 23.273 11.3232 22.4451C10.981 21.6172 10.8915 20.7063 11.0659 19.8274C11.2403 18.9486 11.6709 18.1413 12.3032 17.5077C12.9354 16.8741 13.741 16.4426 14.6179 16.2678C15.4949 16.093 16.4039 16.1827 17.23 16.5256C18.056 16.8685 18.7621 17.4492 19.2589 18.1942C19.7556 18.9393 20.0208 19.8152 20.0208 20.7113C20.0194 21.9125 19.5427 23.0641 18.6951 23.9134C17.8476 24.7628 16.6985 25.2405 15.4999 25.2419V25.2419Z" fill="#DE0D1D"/>
<path d="M15.5002 22.7824C16.6416 22.7824 17.5668 21.8551 17.5668 20.7113C17.5668 19.5674 16.6416 18.6401 15.5002 18.6401C14.3588 18.6401 13.4335 19.5674 13.4335 20.7113C13.4335 21.8551 14.3588 22.7824 15.5002 22.7824Z" fill="#DE0D1D"/>
</svg>
