<svg width="28" height="31" viewBox="0 0 28 31" fill="none" xmlns="http://www.w3.org/2000/svg">
<path d="M19.3279 5.82784C18.8417 5.86537 18.4671 6.25351 18.4671 6.71987V13.3635C18.4671 13.9227 17.9911 14.3777 17.4061 14.3777H11.4145C10.8295 14.3777 10.3535 13.9227 10.3535 13.3635V6.71987C10.3535 6.25357 9.97892 5.86537 9.49267 5.8279C4.97933 5.47943 0.991699 8.95225 0.991699 13.3827C0.991699 18.7109 5.48537 27.6793 5.78352 28.2683C6.36819 29.5468 7.95908 30.5453 9.41734 30.5453C10.9926 30.5453 12.4011 29.3777 12.624 27.8854L13.0575 24.9446C13.1467 24.3471 13.7789 23.8231 14.4103 23.8231C15.0417 23.8231 15.6739 24.3472 15.7629 24.943L16.1969 27.8871C16.4195 29.3777 17.828 30.5453 19.4033 30.5453C20.8647 30.5453 22.4594 29.5425 23.041 28.2599C23.2998 27.7233 27.8289 18.2591 27.8289 13.3827C27.8289 8.95983 23.8495 5.47884 19.3279 5.82784Z" fill="#DE0D1D"/>
<path d="M11.9137 5.19034H13.474V6.2642H12.9123C12.3953 6.2642 11.9761 6.66487 11.9761 7.15909C11.9761 7.65331 12.3953 8.05398 12.9123 8.05398H13.474V9.60511H12.9123C12.3953 9.60511 11.9761 10.0058 11.9761 10.5C11.9761 10.9942 12.3953 11.3949 12.9123 11.3949H13.474V12.4091C13.474 12.9033 13.8932 13.304 14.4102 13.304C14.9272 13.304 15.3464 12.9033 15.3464 12.4091V11.3949H15.9081C16.4251 11.3949 16.8443 10.9942 16.8443 10.5C16.8443 10.0058 16.4251 9.60511 15.9081 9.60511H15.3464V8.05398H15.9081C16.4251 8.05398 16.8443 7.65331 16.8443 7.15909C16.8443 6.66487 16.4251 6.2642 15.9081 6.2642H15.3464V5.19034H16.9067C17.4237 5.19034 17.8429 4.78967 17.8429 4.29545V0.894886C17.8429 0.40067 17.4237 0 16.9067 0H11.9137C11.3967 0 10.9775 0.40067 10.9775 0.894886V4.29545C10.9775 4.78967 11.3967 5.19034 11.9137 5.19034Z" fill="#DE0D1D"/>
</svg>
