<svg width="32" height="32" viewBox="0 0 32 32" fill="none" xmlns="http://www.w3.org/2000/svg">
<path d="M25.3949 0L17.628 7.69561L20.9544 11.0049L22.6176 9.36585L20.9544 7.69561L25.3949 3.27805L27.0581 4.93268L28.7527 3.27805L25.3949 0ZM30.9494 3.27805L21.786 12.3941L18.4439 13.5024L2.07851 29.7678L4.32228 32L13.1875 23.1493L19.8561 29.7678L26.5089 23.1493L19.8561 16.5307L20.1228 16.2341L23.4649 15.1259L30.9494 7.69561C32.1733 6.47805 32.1733 4.49561 30.9494 3.27805V3.27805ZM7.64871 4.38634L0.99585 11.0049L8.76275 18.7317L15.4156 12.1132L7.64871 4.38634ZM25.9598 25.9122L22.6176 29.2215L24.83 31.4224L28.1721 28.0976L25.9598 25.9122Z" fill="#DE0D1D"/>
</svg>
