<svg width="33" height="32" viewBox="0 0 33 32" fill="none" xmlns="http://www.w3.org/2000/svg">
<path d="M20.446 2.75094C20.446 7.74206 24.4898 11.8027 29.4602 11.8027C30.5937 11.8027 31.6977 11.594 32.7429 11.1833C32.8089 10.712 32.8411 10.233 32.8379 9.74931C32.821 7.17988 31.8127 4.75232 29.9988 2.914C28.1846 1.07557 25.7765 0.0410683 23.2181 0.00119335C22.3896 -0.0116191 21.5757 0.0788808 20.7904 0.265881C20.562 1.06982 20.446 1.90588 20.446 2.75094V2.75094ZM27.112 6.9455H28.9793V8.83094H27.112V6.9455ZM23.668 3.45675H25.5352V5.34219H23.668V3.45675Z" fill="#DE0D1D"/>
<path d="M29.4602 13.6777C23.4602 13.6777 18.5788 8.77595 18.5788 2.75095C18.5788 2.16858 18.6261 1.58977 18.7168 1.01908C18.0762 1.33914 17.4687 1.73158 16.9046 2.19276C15.1252 0.73789 12.9147 -0.0347966 10.591 0.00120335C8.03257 0.0410783 5.62447 1.07558 3.81034 2.91408C1.99633 4.75239 0.988092 7.17995 0.971162 9.74939C0.954171 12.3278 1.94424 14.7756 3.68443 16.6014C5.2959 15.0656 7.44004 14.1976 9.67977 14.1976C14.2285 14.1976 17.9732 17.7183 18.3547 22.1884C18.9109 22.6233 19.2696 23.3014 19.2696 24.0625V32H23.3654L23.6228 31.7898C25.2951 30.4239 26.6685 28.6688 27.5945 26.714C28.5204 24.7593 29.0099 22.5818 29.0099 20.4171V17.6059C30.4597 16.4891 31.5506 15.0037 32.1898 13.3305C31.3033 13.5608 30.3898 13.6777 29.4602 13.6777V13.6777Z" fill="#DE0D1D"/>
<path d="M9.67981 16.0723C7.84028 16.0723 6.08241 16.8174 4.79919 18.1287V20.4168C4.79919 22.5814 5.28866 24.7589 6.21461 26.7136C7.14057 28.6684 8.51397 30.4236 10.1863 31.7894L10.4437 31.9996H14.5394V24.0622C14.5394 22.9211 15.3451 21.9657 16.4151 21.7386C15.8472 18.5225 13.0432 16.0723 9.67981 16.0723V16.0723ZM8.81329 22.4291H6.94607V20.5436H8.81329V22.4291ZM10.805 26.6496H8.93777V24.7643H10.805V26.6496ZM12.7967 20.4044H10.9295V18.519H12.7967V20.4044Z" fill="#DE0D1D"/>
</svg>
