<svg width="37" height="26" viewBox="0 0 37 26" fill="none" xmlns="http://www.w3.org/2000/svg">
<path d="M15.5106 0.327906C13.785 -0.287848 12.0031 -0.0230874 10.5132 1.04253C9.0577 0.0043583 7.2249 -0.285424 5.48971 0.301326C3.43627 1.00201 1.80079 3.01014 1.22291 5.54043C0.730034 7.69184 0.953401 9.90282 1.851 11.7653C2.65645 13.4365 3.0653 15.5701 3.0653 18.1067V22.1424C3.0653 27.2837 9.46599 27.2877 9.46599 22.1424V19.461C9.46599 17.746 11.5646 17.746 11.5646 19.461V22.1424C11.5646 27.2837 17.8603 27.2877 17.8603 22.1424V18.1067C17.8603 15.5701 18.2692 13.4365 19.0745 11.7653C21.1723 7.41202 19.3509 1.69508 15.5106 0.327906Z" fill="#DE0D1D"/>
<path d="M36.5613 5.54027C35.4389 0.629052 30.737 -1.41448 27.3019 1.04238C25.2651 -0.410509 22.5888 -0.439685 20.4053 1.5603C22.3969 4.86954 22.6365 9.44233 20.877 13.0942C20.2674 14.3587 19.9589 16.0451 19.9589 18.1065V22.1423C19.9589 27.2836 26.2546 27.2877 26.2546 22.1423V19.461C26.2546 17.7459 28.3532 17.7459 28.3532 19.461V22.1423C28.3532 27.2836 34.7189 27.2877 34.7189 22.1423V18.1065C34.7189 15.57 35.1277 13.4363 35.9331 11.7652C36.8308 9.90258 37.0541 7.6916 36.5613 5.54027Z" fill="#DE0D1D"/>
</svg>
