<svg width="31" height="32" viewBox="0 0 31 32" fill="none" xmlns="http://www.w3.org/2000/svg">
<path d="M28.1815 25.7145V26.2859H30.4361V25.7145C30.4359 25.563 30.3765 25.4177 30.2708 25.3106C30.1651 25.2035 30.0219 25.1432 29.8724 25.1431H28.7452C28.5957 25.1432 28.4525 25.2035 28.3468 25.3106C28.2411 25.4177 28.1817 25.563 28.1815 25.7145V25.7145Z" fill="#DE0D1D"/>
<path d="M28.1815 27.4287H30.4361V32.0001H28.1815V27.4287Z" fill="#DE0D1D"/>
<path d="M1.68562 14.9774C1.86295 16.9614 2.06389 19.2101 3.36581 22.6498C4.37521 25.3161 6.281 25.7143 7.32724 25.7143C7.84086 25.7143 8.38793 25.4021 8.82792 24.8579C9.57241 23.9376 9.85965 22.5897 9.59644 21.2521C8.96939 18.0674 9.14835 15.7534 10.1133 14.5606C10.5615 14.0071 11.1572 13.7143 11.8363 13.7143C12.5154 13.7143 13.1111 14.0071 13.5591 14.5606C14.5243 15.7535 14.7028 18.0674 14.0759 21.2521C13.8127 22.5897 14.0999 23.9379 14.8444 24.8579C15.2847 25.4021 15.8318 25.7143 16.3454 25.7143V24.5714C16.3454 24.4199 16.4048 24.2745 16.5105 24.1674C16.6162 24.0602 16.7595 24 16.909 24H17.3709L15.7894 14.3796C15.776 14.2978 15.7803 14.2139 15.802 14.1339C15.8238 14.0539 15.8624 13.9797 15.9153 13.9164C15.9683 13.853 16.0341 13.8022 16.1084 13.7673C16.1827 13.7324 16.2635 13.7143 16.3454 13.7143H22.1086C22.2444 12.484 22.472 11.135 23.1215 9.5C23.4766 8.60571 23.6723 7.46429 23.6724 6.28571C23.6724 4.56429 23.2348 3.00536 22.4395 1.89636C21.5398 0.640786 20.2421 0.00278571 18.5829 0H18.5677C16.5468 0 14.9193 0.665143 13.7302 1.15114C12.9636 1.46429 12.3581 1.712 11.8388 1.71429C11.3145 1.712 10.7091 1.46429 9.94244 1.15114C8.75338 0.665143 7.12575 0 5.10498 0H5.08976C3.43056 0.00278571 2.13286 0.640786 1.23274 1.89629C0.437592 3.00529 0 4.56429 0 6.28571C0 7.46429 0.195792 8.60536 0.550952 9.5C1.38344 11.5959 1.53027 13.2384 1.68562 14.9774V14.9774ZM6.18159 22.8226C6.11203 22.8483 6.03815 22.8599 5.96418 22.8566C5.89022 22.8533 5.81762 22.8353 5.75054 22.8035C5.68346 22.7718 5.62321 22.7269 5.57325 22.6715C5.52328 22.6161 5.48458 22.5513 5.45936 22.4807C4.28982 19.2181 4.09255 17.0209 3.91923 15.0822C3.76479 13.3577 3.63135 11.8683 2.85911 9.92814C2.80316 9.7876 2.80458 9.63028 2.86304 9.49079C2.92151 9.3513 3.03224 9.24107 3.17086 9.18436C3.30949 9.12764 3.46467 9.12907 3.60225 9.18835C3.73984 9.24762 3.84856 9.35988 3.90451 9.50043C4.73897 11.597 4.88614 13.2397 5.04185 14.979C5.20932 16.8484 5.39905 18.9671 6.51878 22.0905C6.56981 22.2329 6.56296 22.3901 6.49972 22.5274C6.43649 22.6647 6.32205 22.7709 6.18159 22.8226V22.8226ZM3.24026 3.00714C3.70822 2.5315 4.34182 2.28014 5.07271 2.28014C5.22219 2.28014 5.36556 2.34035 5.47126 2.44751C5.57696 2.55467 5.63634 2.70002 5.63634 2.85157C5.63634 3.00312 5.57696 3.14847 5.47126 3.25563C5.36556 3.3628 5.22219 3.423 5.07271 3.423C4.63589 3.423 4.29771 3.551 4.03844 3.81421C3.60585 4.25393 3.37885 5.10607 3.38181 6.2785C3.382 6.35354 3.36761 6.42789 3.33947 6.49729C3.31132 6.56669 3.26997 6.6298 3.21777 6.683C3.16557 6.7362 3.10354 6.77846 3.03523 6.80736C2.96692 6.83626 2.89367 6.85123 2.81965 6.85143H2.81817C2.66893 6.85143 2.52578 6.79142 2.42012 6.68457C2.31446 6.57771 2.25491 6.43273 2.25454 6.28143C2.25073 4.77764 2.58236 3.67593 3.24026 3.00714V3.00714Z" fill="#DE0D1D"/>
<path d="M18.5997 28.5713H21.9815V31.9999H18.5997V28.5713Z" fill="#DE0D1D"/>
<path d="M21.9738 17.808C21.9492 17.9575 21.8671 18.091 21.7454 18.1791C21.6238 18.2672 21.4726 18.3027 21.3251 18.2778C21.1777 18.2529 21.046 18.1696 20.9591 18.0463C20.8722 17.9229 20.8372 17.7697 20.8618 17.6201L21.316 14.8569H19.265L19.7193 17.6201C19.7314 17.6942 19.7291 17.7699 19.7124 17.843C19.6957 17.9161 19.665 17.9852 19.6219 18.0463C19.5789 18.1073 19.5244 18.1592 19.4616 18.1989C19.3988 18.2387 19.3289 18.2655 19.2559 18.2778C19.225 18.2829 19.1938 18.2856 19.1625 18.2856C19.0292 18.2854 18.9003 18.2374 18.7986 18.1499C18.6969 18.0625 18.6291 17.9413 18.6072 17.808L18.1221 14.8569H17.0104L18.5134 23.9998H22.0676L23.5707 14.8569H22.459L21.9738 17.808Z" fill="#DE0D1D"/>
<path d="M17.4728 25.1431H23.1091V27.4288H17.4728V25.1431Z" fill="#DE0D1D"/>
<path d="M30.9958 14.3563C30.9771 14.5067 30.9004 14.6434 30.7825 14.7365C30.6645 14.8295 30.5149 14.8714 30.3666 14.8527C30.3455 14.8499 28.2022 14.5977 27.113 15.5749C26.6945 15.9506 26.4909 16.4634 26.4909 17.1427C26.4909 18.1506 26.9897 18.8192 28.0163 19.1856C28.5618 19.3847 29.0332 19.7502 29.3656 20.2318C29.698 20.7135 29.8752 21.2877 29.8727 21.8756V23.9999H28.7455V21.8756C28.748 21.5242 28.6433 21.1806 28.4457 20.892C28.248 20.6033 27.9671 20.3838 27.6414 20.2634C26.1725 19.7384 25.3636 18.6306 25.3636 17.1427C25.3636 16.1299 25.7018 15.3134 26.369 14.7163C27.8422 13.3984 30.3983 13.7049 30.5061 13.7184C30.5796 13.7277 30.6505 13.7516 30.7149 13.7887C30.7793 13.8257 30.8358 13.8753 30.8813 13.9345C30.9267 13.9938 30.9603 14.0615 30.9799 14.1339C30.9995 14.2062 31.0049 14.2818 30.9958 14.3563Z" fill="#DE0D1D"/>
</svg>
