<svg width="24" height="24" viewBox="0 0 24 24" fill="none" xmlns="http://www.w3.org/2000/svg">
<path d="M22.1056 0.464759C21.6825 0.229365 21.2173 0.0796683 20.7363 0.024231C20.2554 -0.0312062 19.7683 0.00870283 19.3028 0.141676C18.8373 0.27465 18.4026 0.498079 18.0235 0.799187C17.6444 1.1003 17.3284 1.47317 17.0935 1.8965L10.2518 14.2091L6.33611 10.2935C5.99616 9.9415 5.5895 9.66075 5.13988 9.4676C4.69026 9.27446 4.20667 9.1728 3.71734 9.16854C3.228 9.16429 2.74272 9.25754 2.28981 9.44284C1.8369 9.62814 1.42543 9.90179 1.0794 10.2478C0.733379 10.5938 0.459733 11.0053 0.274433 11.4582C0.0891318 11.9111 -0.00411303 12.3964 0.000139145 12.8857C0.00439132 13.3751 0.106055 13.8587 0.299199 14.3083C0.492343 14.7579 0.773097 15.1646 1.12508 15.5045L8.49571 22.8751C9.19223 23.5735 10.132 23.9568 11.1012 23.9568L11.6116 23.9199C12.1765 23.8409 12.7153 23.6319 13.1857 23.3092C13.656 22.9866 14.0451 22.5592 14.3222 22.0607L23.5355 5.47678C23.7707 5.05381 23.9203 4.58864 23.9757 4.10784C24.0312 3.62704 23.9914 3.14003 23.8586 2.67461C23.7258 2.2092 23.5027 1.7745 23.2019 1.39533C22.9011 1.01616 22.5286 0.699952 22.1056 0.464759Z" fill="#1EB8A4"/>
</svg>
