<svg width="31" height="30" viewBox="0 0 31 30" fill="none" xmlns="http://www.w3.org/2000/svg">
<path d="M27.6818 0.581997C27.1521 0.287223 26.5694 0.099765 25.9672 0.0303434C25.3649 -0.0390781 24.7549 0.0108982 24.172 0.177415C23.5891 0.343931 23.0447 0.623722 22.57 1.00079C22.0953 1.37785 21.6996 1.84479 21.4055 2.37491L12.8378 17.7935L7.93443 12.8901C7.50871 12.4493 6.99948 12.0977 6.43644 11.8559C5.8734 11.614 5.26782 11.4867 4.65505 11.4814C4.04228 11.476 3.43459 11.5928 2.86743 11.8248C2.30027 12.0569 1.785 12.3996 1.35169 12.8329C0.918378 13.2662 0.575703 13.7814 0.343659 14.3486C0.111616 14.9158 -0.00515056 15.5235 0.000174245 16.1362C0.00549905 16.749 0.132808 17.3546 0.374673 17.9176C0.616538 18.4807 0.968115 18.9899 1.40889 19.4156L10.6388 28.6455C11.511 29.52 12.6878 30 13.9016 30L14.5407 29.9538C15.2481 29.8549 15.9228 29.5931 16.5118 29.1891C17.1008 28.7851 17.588 28.2499 17.935 27.6256L29.4724 6.85833C29.767 6.32865 29.9543 5.74614 30.0237 5.14406C30.0932 4.54198 30.0433 3.93212 29.877 3.3493C29.7108 2.76648 29.4313 2.22212 29.0547 1.74731C28.678 1.27249 28.2115 0.876518 27.6818 0.581997V0.581997Z" fill="#1EB8A4"/>
</svg>
