<svg width="36" height="34" viewBox="0 0 36 34" fill="none" xmlns="http://www.w3.org/2000/svg">
<path fill-rule="evenodd" clip-rule="evenodd" d="M14.5798 1.35609C9.69955 -1.22746 5.37732 -0.0129793 1.78295 4.09318C-1.68428 8.05533 0.680458 15.1982 2.3792 20.3336C2.7842 21.5576 3.15207 22.6683 3.39395 23.5937C4.64832 28.4008 5.84982 31.3973 8.58693 33.5658C9.94255 34.6395 11.4804 32.7939 13.1027 30.8478C14.5089 29.16 15.9782 27.396 17.4485 27.3917C18.8941 27.3875 20.3409 29.1494 21.728 30.8372C23.3289 32.7854 24.8499 34.6384 26.1976 33.5658C28.2901 31.9034 29.2385 30.6837 30.3882 27.2594C31.6404 23.5249 33.6642 19.0587 35.273 13.9107C36.4047 10.2895 36.5397 6.60049 33.2784 3.04175C28.6209 -2.04065 22.1668 0.585261 19.1619 2.26563L23.2321 5.54801C23.3444 5.63853 23.4367 5.74898 23.5036 5.87305C23.5705 5.99712 23.6108 6.13238 23.6222 6.27112C23.6336 6.40985 23.6158 6.54933 23.5699 6.68161C23.5241 6.81388 23.4509 6.93635 23.3548 7.04203C23.2586 7.1477 23.1412 7.23452 23.0094 7.29751C22.8776 7.3605 22.7339 7.39844 22.5865 7.40915C22.4391 7.41987 22.2909 7.40316 22.1503 7.35997C22.0098 7.31678 21.8797 7.24796 21.7674 7.15744L14.5798 1.35609Z" fill="#DE0D1D"/>
</svg>
