<svg width="23" height="23" viewBox="0 0 23 23" fill="none" xmlns="http://www.w3.org/2000/svg">
<path d="M22.3424 2.39L22.3044 2.36626L17.5014 0L12.3173 6.91208L14.7024 10.0924C14.631 11.2917 14.1224 12.4233 13.2728 13.2729C12.4232 14.1225 11.2916 14.6311 10.0923 14.7024L6.91202 12.3174L0 17.5013L2.34657 22.2642L2.36632 22.3044L2.39011 22.3423C2.51533 22.5441 2.69012 22.7105 2.89782 22.8256C3.10552 22.9407 3.33924 23.0007 3.57671 23H4.81605C7.20401 23 9.56858 22.5297 11.7748 21.6158C13.9809 20.702 15.9855 19.3626 17.6741 17.674C19.3626 15.9855 20.702 13.9809 21.6158 11.7747C22.5297 9.56852 23 7.20395 23 4.816V3.5766C23.0008 3.33913 22.9407 3.10542 22.8256 2.89772C22.7105 2.69001 22.5441 2.51523 22.3424 2.39V2.39ZM21.2251 4.816C21.2251 13.864 13.864 21.2251 4.81605 21.2251H3.81322L2.24318 18.0378L6.91236 14.5359L9.51191 16.4855H9.80771C11.5783 16.4835 13.2757 15.7793 14.5277 14.5273C15.7797 13.2753 16.4839 11.5779 16.4859 9.80732V9.51152L14.5363 6.91202L18.0378 2.24312L21.2251 3.81344V4.816Z" fill="#606F76"/>
</svg>
