<svg width="16" height="15" viewBox="0 0 16 15" fill="none" xmlns="http://www.w3.org/2000/svg">
<path d="M8.10207 0.292054C8.01772 0.11322 7.84367 0 7.65309 0C7.46251 0 7.28845 0.11322 7.20411 0.292054L5.15445 4.63796L0.571625 5.33436C0.383015 5.36302 0.226313 5.50125 0.16741 5.69092C0.108507 5.88059 0.157619 6.08881 0.294096 6.22802L3.61036 9.61064L2.82728 14.3875C2.79506 14.5841 2.87227 14.7827 3.02646 14.8999C3.18065 15.0172 3.38506 15.0326 3.55375 14.9398L7.65309 12.6845L11.7524 14.9398C11.9211 15.0326 12.1255 15.0172 12.2797 14.8999C12.4339 14.7827 12.5111 14.5841 12.4789 14.3875L11.6958 9.61064L15.0121 6.22802C15.1486 6.08881 15.1977 5.88059 15.1388 5.69092C15.0799 5.50125 14.9232 5.36302 14.7345 5.33436L10.1517 4.63796L8.10207 0.292054Z" fill="#FFB200"/>
</svg>
